<?xml version="1.0" standalone="no"?> 
<!DOCTYPE svg PUBLIC "-//W3C//DTD SVG 1.1//EN" "http://www.w3.org/Graphics/SVG/1.1/DTD/svg11.dtd" >
<svg xmlns="http://www.w3.org/2000/svg">
<defs>
  <font id="dls-icons" horiz-adv-x="52">
    <font-face font-family="dls-icons"
      units-per-em="1001" ascent="1001"
      descent="0" />
    <missing-glyph horiz-adv-x="0" />
    <glyph glyph-name="axp-icon-account-filled"
      unicode="&#xEA01;"
      horiz-adv-x="1001" d=" M904.7320975 149.2027075000001H904.7655925V149.19366H904.7320975V149.2027075000001z M505.6449475 895.125C503.19577 895.125 501.352005 895.0643625 500.20047 895.0035325C499.1138075 895.06417 497.32067 895.125 494.9221199999999 895.125C462.3262875 895.1251925 317.7137425 883.9155325 309.0266025 709.1832825C309.0266025 709.1832825 289.444155 541.94217 382.698855 464.07284C381.0897475 456.2852525000001 380.5488225 455.543935 378.6834975 448.4649400000001C374.02134 424.5720325000001 365.9130475 389.8125 351.9244575 382.7336975C351.9244575 382.7336975 266.62251 336.7177275 177.0986524999999 283.62719C116.54181 247.7138125 100.2703625 208.5658575 96.25 155.1906125000001C99.19063 127.51585 122.3531925 105.875 150.82914 105.875H849.5827724999999C878.1753749999999 105.875 901.4099325 127.69295 904.1955999999998 155.5313375C900.267445 208.7317925 884.5996775 247.78985 823.3292374999999 283.6269974999999C733.8076899999999 336.717535 648.4743649999998 382.7335049999999 648.4743649999998 382.7335049999999C634.4853899999998 389.8124999999999 625.4771599999998 425.4742799999999 620.8124999999999 449.3671874999999C619.6093749999999 454.1796874999999 618.6312824999999 456.9959624999999 617.6997749999998 464.0726474999999C710.9544749999998 541.9419774999999 691.3722199999997 709.18309 691.3722199999997 709.18309C682.68508 883.9039825 538.894895 895.125 505.6449475 895.125L505.6449475 895.125z" />
    <glyph glyph-name="axp-icon-account"
      unicode="&#xEA02;"
      horiz-adv-x="1001" d=" M904.7320975 149.2027075000001H904.7655925V149.1934675H904.7320975V149.2027075000001z M505.644755 837.375C551.0333674999999 837.375 628.02355 820.348375 633.69306 706.3154175L633.7995125 704.3836799999999L633.9958624999999 702.622305C638.2431825 664.52925 636.945155 555.379055 580.6851049999999 508.400585L556.2974724999999 488.0365875L560.4433449999999 456.5366575C561.6601374999999 447.2928075 563.1550924999999 441.6019300000001 564.2467599999999 437.4470100000001L564.4735249999999 436.5711350000001C576.1257424999999 377.9616225000001 593.2486174999999 346.4514900000001 621.4731599999999 331.6821200000001C627.9802374999999 328.1634125000001 709.6165999999998 283.9222925000002 794.1722249999998 233.7783525000001C831.1335724999999 212.1594475000001 841.5478224999998 194.06079 845.4018649999998 163.6253850000002H155.1309375C159.11742 193.4251550000001 169.915515 212.2254750000002 206.5557725 233.9552600000002C290.77972 283.9026575000002 372.3358100000001 328.1174050000001 378.92239 331.6805800000001C411.5544125 348.7447425000002 425.068105 385.4893350000001 434.9678025 435.3878375000001C435.25867 436.4465875000001 435.5048775 437.2999400000001 435.72914 438.0793725000001C436.892225 442.1239900000001 437.744615 445.0807900000001 439.254585 452.3892450000001L446.2486875 486.2440275000001L419.713525 508.4009700000001C363.4534750000001 555.37944 362.15564 664.5294425000001 366.3848650000001 702.467535L366.6095125 704.3861825000001L366.70557 706.3158025C368.66445 745.7217075000001 385.0798875 837.3757700000001 494.9221199999999 837.375C495.8415 837.375 496.5543275 837.3636425000001 496.9828325 837.3432375000001L500.168515 837.1771100000001L503.2456275 837.333805C503.765955 837.36037 504.577535 837.375 505.644755 837.375M505.6449475 895.125C503.19577 895.125 501.352005 895.0643625 500.20047 895.0035325C499.1138075 895.06417 497.32067 895.125 494.9221199999999 895.125C462.3262875 895.1251925 317.7137425 883.9155325 309.02641 709.1832825C309.02641 709.1832825 289.44377 541.94217 382.69847 464.07284C381.0897475 456.2852525000001 380.54863 455.543935 378.6834975 448.4649400000001C374.02134 424.5720325000001 365.9130475 389.8125 351.924265 382.7336975C351.924265 382.7336975 266.62251 336.7177275 177.0984599999999 283.62719C116.54181 247.7138125 100.27017 208.5658575 96.25 155.1906125000001C99.1904375 127.51585 122.3531925 105.875 150.8289475 105.875H849.5827725C878.1751825000001 105.875 901.40974 127.69295 904.1954075000002 155.5313375C900.2672525000002 208.7317925 884.5994850000002 247.78985 823.3290450000001 283.6269974999999C733.8071125000001 336.717535 648.4737875000001 382.7335049999999 648.4737875000001 382.7335049999999C634.4850050000001 389.8124999999999 625.476775 425.4742799999999 620.8123075000001 449.3671874999999C619.6091825000001 454.1796874999999 618.6310900000001 456.9959624999999 617.6995825 464.0726474999999C710.9542825 541.9419774999999 691.3718349999999 709.18309 691.3718349999999 709.18309C682.68508 883.9039825 538.8947025 895.125 505.6449475 895.125L505.6449475 895.125z" />
    <glyph glyph-name="axp-icon-activity-filled"
      unicode="&#xEA03;"
      horiz-adv-x="1001" d=" M250.25 741.125C250.25 799.597645 202.8488 847 144.375 847C85.902355 847 38.5 799.597645 38.5 741.125C38.5 692.6769850000001 71.0819725 651.9199225 115.5 639.3387V602.2863C71.0819725 589.7050775 38.5 548.9493625 38.5 500.5C38.5 452.0519849999999 71.0819725 411.2949225 115.5 398.7137V361.6613C71.0819725 349.0800775 38.5 308.3243625 38.5 259.875C38.5 201.4023550000001 85.902355 154 144.375 154C202.8488 154 250.25 201.4023550000001 250.25 259.875C250.25 308.3243625 217.6680275 349.0800775 173.25 361.6613V398.7137C217.6680275 411.29473 250.25 452.0506375 250.25 500.5S217.6680275 589.7050775 173.25 602.2863V639.3387C217.6680275 651.9199225 250.25 692.6756375 250.25 741.125z M356.125 644.875H760.375C776.3163099999999 644.875 789.25 657.7992575 789.25 673.75S776.3163099999999 702.625 760.375 702.625H356.125C340.18369 702.625 327.25 689.7007425 327.25 673.75S340.18369 644.875 356.125 644.875z M702.625 356.125H356.125C340.18369 356.125 327.25 343.19131 327.25 327.25S340.18369 298.375 356.125 298.375H702.625C718.5663099999999 298.375 731.5 311.3086900000001 731.5 327.25S718.5663099999999 356.125 702.625 356.125z M933.625 529.375H356.125C340.18369 529.375 327.25 516.4507425 327.25 500.5S340.18369 471.625 356.125 471.625H933.625C949.56631 471.625 962.5 484.5492575 962.5 500.5S949.56631 529.375 933.625 529.375z" />
    <glyph glyph-name="axp-icon-activity"
      unicode="&#xEA04;"
      horiz-adv-x="1001" d=" M250.25 741.125C250.25 799.5988 202.8488 847 144.375 847S38.5 799.5988 38.5 741.125C38.5 692.6756375 71.0819725 651.9199225 115.5 639.3387V602.2863C71.0819725 589.7050775 38.5 548.9493625 38.5 500.5S71.0819725 411.2949225 115.5 398.7137V361.6613C71.0819725 349.0800775 38.5 308.3243625 38.5 259.875C38.5 201.4023550000001 85.9012 154 144.375 154S250.25 201.4023550000001 250.25 259.875C250.25 308.3243625 217.6680275 349.0800775 173.25 361.6613V398.7137C217.6680275 411.29473 250.25 452.0506375 250.25 500.5S217.6680275 589.7050775 173.25 602.2863V639.3387C217.6680275 651.9199225 250.25 692.6756375 250.25 741.125zM192.5 259.875C192.5 233.33926 170.91074 211.75 144.375 211.75S96.25 233.33926 96.25 259.875C96.25 286.4118950000001 117.83926 308 144.375 308S192.5 286.4118950000001 192.5 259.875zM192.5 500.5C192.5 473.96426 170.91074 452.375 144.375 452.375S96.25 473.96426 96.25 500.5C96.25 527.036895 117.83926 548.625 144.375 548.625S192.5 527.036895 192.5 500.5zM144.375 693C117.83926 693 96.25 714.58926 96.25 741.125S117.83926 789.25 144.375 789.25S192.5 767.66074 192.5 741.125S170.91074 693 144.375 693z M356.125 644.875H760.375C776.3163099999999 644.875 789.25 657.7992575 789.25 673.75S776.3163099999999 702.625 760.375 702.625H356.125C340.18369 702.625 327.25 689.7007425 327.25 673.75S340.18369 644.875 356.125 644.875z M702.625 356.125H356.125C340.18369 356.125 327.25 343.19131 327.25 327.25S340.18369 298.375 356.125 298.375H702.625C718.5663099999999 298.375 731.5 311.3086900000001 731.5 327.25S718.5663099999999 356.125 702.625 356.125z M933.625 529.375H356.125C340.18369 529.375 327.25 516.4507425 327.25 500.5S340.18369 471.625 356.125 471.625H933.625C949.56631 471.625 962.5 484.5492575 962.5 500.5S949.56631 529.375 933.625 529.375z" />
    <glyph glyph-name="axp-icon-business-filled"
      unicode="&#xEA05;"
      horiz-adv-x="1001" d=" M693 789.25C693 821.012885 667.012885 847 635.25 847H365.75C333.987115 847 308 821.012885 308 789.25V731.5H211.75V154H789.25V731.5H693V789.25zM365.75 789.25H635.25V731.5H365.75V789.25z M904.75 731.5H847V154H904.75C936.512885 154 962.5 179.98827 962.5 211.75V673.75C962.5 705.512885 936.512885 731.5 904.75 731.5z M38.5 673.75V211.75C38.5 179.98827 64.487115 154 96.25 154H154V731.5H96.25C64.487115 731.5 38.5 705.512885 38.5 673.75z" />
    <glyph glyph-name="axp-icon-business"
      unicode="&#xEA06;"
      horiz-adv-x="1001" d=" M904.75 731.5H847H789.25H693V789.25C693 821.012885 667.012885 847 635.25 847H365.75C333.987115 847 308 821.012885 308 789.25V731.5H211.75H154H96.25C64.48827 731.5 38.5 705.512885 38.5 673.75V211.75C38.5 179.98827 64.48827 154 96.25 154H154H211.75H789.25H847H904.75C936.512885 154 962.5 179.98827 962.5 211.75V673.75C962.5 705.512885 936.512885 731.5 904.75 731.5zM365.75 789.25H635.25V731.5H365.75V789.25zM96.25 211.75V673.75H154V211.75H96.25zM211.75 211.75V673.75H308H365.75H635.25H693H789.25V211.75H211.75zM904.75 211.75H847V673.75H904.75V211.75z" />
    <glyph glyph-name="axp-icon-calendar-filled"
      unicode="&#xEA07;"
      horiz-adv-x="1001" d=" M904.75 673.75V847C904.75 878.762885 878.762885 904.75 847 904.75H154C122.237115 904.75 96.25 878.762885 96.25 847V673.75H904.75zM625.625 818.125H760.375C776.3163099999999 818.125 789.25 805.2007424999999 789.25 789.25S776.3163099999999 760.375 760.375 760.375H625.625C609.6836900000001 760.375 596.75 773.2992575000001 596.75 789.25S609.6836900000001 818.125 625.625 818.125zM240.625 818.125H375.375C391.31631 818.125 404.25 805.2007424999999 404.25 789.25S391.31631 760.375 375.375 760.375H240.625C224.68369 760.375 211.75 773.2992575000001 211.75 789.25S224.68369 818.125 240.625 818.125z M96.25 616H471.625V385H96.25V616z M529.375 616H904.75V385H529.375V616z M529.375 327.25V96.25H847C878.762885 96.25 904.75 122.23827 904.75 154V327.25H529.375z M471.625 327.25H96.25V154C96.25 122.23827 122.237115 96.25 154 96.25H471.625V327.25z" />
    <glyph glyph-name="axp-icon-calendar"
      unicode="&#xEA08;"
      horiz-adv-x="1001" d=" M847 904.75H154C122.23827 904.75 96.25 878.762885 96.25 847V154C96.25 122.23827 122.23827 96.25 154 96.25H847C878.762885 96.25 904.75 122.23827 904.75 154V847C904.75 878.762885 878.762885 904.75 847 904.75zM154 616H471.625V413.875H154V616zM529.375 616H847V413.875H529.375V616zM154 847H847V673.75H154V847zM154 154V356.125H471.625V154H154zM847 154H529.375V356.125H847V154z M375.375 789.25H240.625C224.6742575 789.25 211.75 776.3257424999999 211.75 760.375S224.6742575 731.5 240.625 731.5H375.375C391.31631 731.5 404.25 744.4242575000001 404.25 760.375S391.31631 789.25 375.375 789.25z M760.375 789.25H625.625C609.6836900000001 789.25 596.75 776.3257424999999 596.75 760.375S609.6836900000001 731.5 625.625 731.5H760.375C776.3163099999999 731.5 789.25 744.4242575000001 789.25 760.375S776.3163099999999 789.25 760.375 789.25z" />
    <glyph glyph-name="axp-icon-cancelcircle-filled"
      unicode="&#xEA09;"
      horiz-adv-x="1001" d=" M827.18328 827.18328C646.7613074999999 1007.6052525 354.2386925 1007.6052525 173.81672 827.18328S-6.6052525 354.2386925000001 173.81672 173.81672S646.7613074999999 -6.6052525 827.18328 173.81672S1007.605445 646.7613074999999 827.18328 827.18328zM623.00623 337.1583599999999L500.5 459.66459L377.9937700000001 337.1583599999999C366.7215475 325.8861375 348.4305825 325.8861375 337.15836 337.1583599999999C325.8861375 348.430775 325.8861375 366.7215475 337.15836 377.99377L459.66459 500.5L337.15836 623.00623C325.8861375 634.2784525 325.8794 652.56268 337.15836 663.84164S366.7215475 675.1138625 377.9937700000001 663.84164L500.5 541.33541L623.00623 663.84164C634.2851900000001 675.1206 652.5694175 675.1138625 663.8416399999999 663.84164C675.1138624999999 652.5694175 675.1206 634.2851900000001 663.8416399999999 623.00623L541.33541 500.5L663.8416400000001 377.9937700000001C675.1138625 366.721355 675.1206000000001 348.43732 663.8416400000001 337.1583600000002S634.278645 325.8861375 623.00623 337.1583599999999z" />
    <glyph glyph-name="axp-icon-cancelcircle"
      unicode="&#xEA0A;"
      horiz-adv-x="1001" d=" M827.183665 827.183665C736.9727750000001 917.394555 618.7363875 962.5 500.5 962.5S264.02838 917.394555 173.81749 827.183665C-6.605445 646.76073 -6.605445 354.2392700000001 173.81749 173.81749C264.02838 83.6054449999999 382.2636125 38.5 500.5 38.5S736.9727750000001 83.6054449999999 827.183665 173.81749C1007.605445 354.2392700000001 1007.605445 646.76073 827.183665 827.183665zM786.3478700000001 214.65213C709.9952474999999 138.2995075 608.4792175 96.25 500.5 96.25S291.0047525 138.2995075 214.65213 214.65213S96.25 392.5207825 96.25 500.5S138.2995075 709.9952475 214.65213 786.3478700000001S392.5207825 904.75 500.5 904.75S709.9952474999999 862.7004925 786.3478700000001 786.3478700000001S904.75 608.4792175 904.75 500.5S862.7004925 291.0047525000001 786.3478700000001 214.65213z M663.8429874999999 663.8429874999999C652.5636424999999 675.1223325000001 634.2911574999999 675.1223325000001 623.0120049999999 663.8429874999999L500.5 541.3309825L377.987995 663.8429874999999C366.70865 675.1223325 348.436165 675.1223325 337.1570125 663.8429874999999C325.8776675 652.5730749999999 325.8776675 634.2819175 337.1570125 623.012005L459.6690175 500.5L337.1570125000001 377.987995C325.8776675000001 366.7086499999999 325.8776675000001 348.436165 337.1570125000001 337.1570125C342.7966850000001 331.51734 350.1846425000001 328.6976 357.5726 328.6976S372.348515 331.5173399999999 377.9881875000001 337.1570125L500.5 459.6690175L623.012005 337.1570125000001C628.6516775 331.5173400000001 636.0396350000001 328.6976000000001 643.4275925000001 328.6976000000001S658.2035075000001 331.51734 663.84318 337.1570125000001C675.122525 348.4363575000001 675.122525 366.7088425000001 663.84318 377.9879950000001L541.3309825 500.5L663.8429874999999 623.012005C675.1223325 634.2819175 675.1223325 652.573075 663.8429874999999 663.8429874999999z" />
    <glyph glyph-name="axp-icon-card-filled"
      unicode="&#xEA0B;"
      horiz-adv-x="1001" d=" M904.75 789.25H96.25C64.487115 789.25 38.5 763.262885 38.5 731.5V269.5C38.5 237.73827 64.487115 211.75 96.25 211.75H904.75C936.512885 211.75 962.5 237.73827 962.5 269.5V731.5C962.5 763.262885 936.512885 789.25 904.75 789.25zM245.4375 644.9783725C281.2492375 644.9783725 308 610.3039249999999 308 579.295255C308 546.4818975000001 279.9333075 519.7781050000001 245.4375 519.7781050000001S182.875 546.4818975000001 182.875 579.295255C182.875 610.3039249999999 209.6257625 644.9783725 245.4375 644.9783725zM298.375 327.25H182.875C166.93369 327.25 154 340.1836900000001 154 356.125S166.93369 385 182.875 385H298.375C314.31631 385 327.25 372.06631 327.25 356.125S314.31631 327.25 298.375 327.25zM558.25 327.25H442.75C426.80869 327.25 413.875 340.1836900000001 413.875 356.125S426.80869 385 442.75 385H558.25C574.1913099999999 385 587.125 372.06631 587.125 356.125S574.1913099999999 327.25 558.25 327.25zM818.125 327.25H702.625C686.6836900000001 327.25 673.75 340.1836900000001 673.75 356.125S686.6836900000001 385 702.625 385H818.125C834.0663099999999 385 847 372.06631 847 356.125S834.0663099999999 327.25 818.125 327.25z" />
    <glyph glyph-name="axp-icon-card"
      unicode="&#xEA0C;"
      horiz-adv-x="1001" d=" M245.4375 490.875C295.855945 490.875 336.875 529.3468949999999 336.875 576.6447225000001C336.875 622.5421125 297.7734375 673.88167 245.4375 673.88167S154 622.54192 154 576.6447225000001C154 529.3468949999999 195.019055 490.875 245.4375 490.875zM245.4375 616.13167C262.4693225 616.13167 279.125 593.51677 279.125 576.6447225000001C279.125 561.19217 264.01067 548.625 245.4375 548.625S211.75 561.1919775 211.75 576.6447225000001C211.75 593.5165775 228.4056775 616.13167 245.4375 616.13167z M904.75 789.25H96.25C64.48827 789.25 38.5 763.262885 38.5 731.5V269.5C38.5 237.73827 64.48827 211.75 96.25 211.75H904.75C936.512885 211.75 962.5 237.73827 962.5 269.5V731.5C962.5 763.262885 936.512885 789.25 904.75 789.25zM904.75 269.5H96.25V731.5H904.75V269.5z M182.875 327.25H298.375C314.31631 327.25 327.25 340.1836900000001 327.25 356.125S314.31631 385 298.375 385H182.875C166.9242575 385 154 372.06631 154 356.125S166.9242575 327.25 182.875 327.25z M442.75 327.25H558.25C574.1913099999999 327.25 587.125 340.1836900000001 587.125 356.125S574.1913099999999 385 558.25 385H442.75C426.80869 385 413.875 372.06631 413.875 356.125S426.80869 327.25 442.75 327.25z M702.625 327.25H818.125C834.0663099999999 327.25 847 340.1836900000001 847 356.125S834.0663099999999 385 818.125 385H702.625C686.6836900000001 385 673.75 372.06631 673.75 356.125S686.6836900000001 327.25 702.625 327.25z" />
    <glyph glyph-name="axp-icon-check-filled"
      unicode="&#xEA0D;"
      horiz-adv-x="1001" d=" M856.0234375 794.9741799999999C836.4538875000001 812.9835175 806.0373475 811.7334225 788.02801 792.182545L344.7528700000001 310.9127175000001L121.1396725 534.5259149999999C102.3408925 553.324695 71.886815 553.324695 53.0878425 534.5259149999999C34.2890625 515.7365675 34.2890625 485.263625 53.0878425 466.4740849999999L312.154535 207.4073924999999C321.5233175 198.0386099999998 333.786145 193.3506574999999 346.0593675 193.3200499999998C346.09575 193.3200499999998 346.1252025 193.3083074999999 346.161585 193.3083074999999C346.16505 193.3083074999999 346.1675525 193.3094624999998 346.1710175 193.3094624999998S346.176985 193.3083074999999 346.18045 193.3083074999999C346.1864175 193.3083074999999 346.1921925000001 193.3117724999999 346.1981600000001 193.3117724999999C359.1763175 193.3212049999999 372.0948 198.5437299999999 381.5786975 208.8361274999999L858.824505 726.9695124999998C876.8336499999999 746.5201975 875.5743150000001 776.965035 856.0234375 794.9741799999999z" />
    <glyph glyph-name="axp-icon-check"
      unicode="&#xEA0E;"
      horiz-adv-x="1001" d=" M856.9445499999999 792.6713025C845.1953125 803.4524575 826.9603649999999 802.7097925 816.1322399999999 790.9888525L337.4399875 271.2658025L87.7905875 520.9155874999999C76.5112425 532.1949325 58.2387575 532.1949325 46.959605 520.9155874999999C35.68026 509.645675 35.68026 491.3545175 46.959605 480.084605L317.8883400000001 209.1558700000001C323.5280125000001 203.5161975000001 330.9159700000001 200.6964575 338.3039275 200.6964575C346.0867025 200.6964575 353.8506125 203.8359399999999 359.5466875 210.0019075L858.6179525 751.86881C869.42702 763.59899 868.675115 781.8620425 856.9445499999999 792.6713025z" />
    <glyph glyph-name="axp-icon-close-filled"
      unicode="&#xEA0F;"
      horiz-adv-x="1001" d=" M568.55183 500.49538L827.1861674999999 759.1249049999999C845.9849475 777.9142525 845.9849475 808.387195 827.1861674999999 827.176735C808.3873874999999 845.975515 777.9333099999999 845.975515 759.1343375 827.176735L500.5 568.5470175L241.8656625 827.1765425C223.0668825 845.9753225 192.612805 845.9753225 173.8138325 827.1765425C155.0150525000001 808.387195 155.0150525000001 777.9142525 173.8138325 759.1247125L432.4481700000001 500.4951875L173.814025 241.8656625C155.015245 223.0668825 155.015245 192.612805 173.814025 173.8138325000001C183.213415 164.4144425 195.5266775 159.7147475000002 207.83994 159.7147475000002S232.4664650000001 164.4144425000002 241.865855 173.8138325000001L500.5 432.44355L759.1343375 173.814025C768.5337275 164.414635 780.84699 159.7149400000001 793.1602525000001 159.7149400000001S817.7867775 164.4146350000001 827.1861675000001 173.814025C845.9849475000001 192.612805 845.9849475000001 223.0668825 827.1861675000001 241.8658549999999L568.55183 500.49538z" />
    <glyph glyph-name="axp-icon-close"
      unicode="&#xEA10;"
      horiz-adv-x="1001" d=" M541.335795 500.49538L827.185975 786.34556C838.46532 797.6154725 838.46532 815.90663 827.185975 827.1765425C815.90663 838.4558875 797.6341450000001 838.4558875 786.3549925 827.1765425L500.50462 541.3263625L214.65444 827.1765425C203.375095 838.4558875 185.10261 838.4558875 173.8234575 827.1765425C162.5441125 815.90663 162.5441125 797.6154725 173.8234575 786.34556L459.67383 500.4951875L173.8234575 214.6450075C162.5441125 203.3656625 162.5441125 185.0931775 173.8234575 173.814025C179.46313 168.1743525000001 186.8510875 165.3546124999999 194.239045 165.3546124999999S209.01496 168.1743525 214.6546325 173.814025L500.505005 459.6643975L786.3549925 173.814025C791.9946649999999 168.1743525000001 799.3826225 165.3546124999999 806.77058 165.3546124999999S821.546495 168.1743525 827.1861674999999 173.814025C838.4655124999999 185.0933700000001 838.4655124999999 203.3658549999999 827.1861674999999 214.6450075L541.335795 500.49538z" />
    <glyph glyph-name="axp-icon-desktop-filled"
      unicode="&#xEA11;"
      horiz-adv-x="1001" d=" M904.75 269.5V847C904.75 878.762885 878.762885 904.75 847 904.75H154C122.237115 904.75 96.25 878.762885 96.25 847V269.5C96.25 237.73827 122.237115 211.75 154 211.75H317.626155L308 154H134.75C118.80869 154 105.875 141.0663099999999 105.875 125.125S118.80869 96.25 134.75 96.25H298.375H702.625H866.25C882.1913099999999 96.25 895.125 109.1836900000001 895.125 125.125S882.1913099999999 154 866.25 154H693L683.3738450000001 211.75H847C878.762885 211.75 904.75 237.73827 904.75 269.5zM366.546565 154L376.1727200000001 211.75H624.8270875000001L634.4532425 154H366.546565zM471.625 327.25C471.625 343.1972775 484.5527225 356.125 500.5 356.125S529.375 343.1972775 529.375 327.25S516.4472775 298.375 500.5 298.375S471.625 311.3027225000001 471.625 327.25zM154 442.75V847H847V442.75H154z" />
    <glyph glyph-name="axp-icon-desktop"
      unicode="&#xEA12;"
      horiz-adv-x="1001" d=" M847 211.75C878.762885 211.75 904.75 237.73827 904.75 269.5V847C904.75 878.762885 878.762885 904.75 847 904.75H154C122.23827 904.75 96.25 878.762885 96.25 847V269.5C96.25 237.73827 122.23827 211.75 154 211.75H317.626155L308 154H134.75C118.7992575 154 105.875 141.0663099999999 105.875 125.125S118.7992575 96.25 134.75 96.25H298.375H702.625H866.25C882.1913099999999 96.25 895.125 109.1836900000001 895.125 125.125S882.1913099999999 154 866.25 154H693L683.3738450000001 211.75H847zM847 847V442.75H154V847H847zM154 269.5V385H847V269.5H673.7488450000001H327.2511550000001H154zM634.453435 154H366.546565L376.1727200000001 211.75H624.8270875000001L634.453435 154z M471.625 327.25C471.625 311.3027778486359 484.5527778486358 298.375 500.5 298.375C516.4472221513641 298.375 529.375 311.3027778486359 529.375 327.25C529.375 343.1972221513642 516.4472221513641 356.125 500.5 356.125C484.5527778486358 356.125 471.625 343.1972221513642 471.625 327.25z" />
    <glyph glyph-name="axp-icon-down-filled"
      unicode="&#xEA13;"
      horiz-adv-x="1001" d=" M890.650915 712.5884149999999C871.8521350000001 731.387195 841.3980575 731.387195 822.5990850000001 712.5884149999999L500.5 390.48933L178.400915 712.5884149999999C159.602135 731.387195 129.1480575 731.387195 110.349085 712.5884149999999C91.550305 693.7990675000001 91.550305 663.326125 110.349085 644.5365850000001L466.474085 288.4115850000001C475.873475 279.012195 488.1867375 274.3125 500.5 274.3125S525.126525 279.012195 534.5259149999999 288.411585L890.6509149999999 644.536585C909.449695 663.326125 909.449695 693.798875 890.650915 712.5884149999999z" />
    <glyph glyph-name="axp-icon-down"
      unicode="&#xEA14;"
      horiz-adv-x="1001" d=" M896.2905875 708.6030874999999C885.0112425 719.8824325 866.7387575 719.8824325 855.4596049999999 708.6030874999999L500.5 353.6434825L145.5405875 708.6030874999999C134.2612425 719.8824325 115.9887575 719.8824325 104.709605 708.6030874999999C93.43026 697.333175 93.43026 679.0420174999999 104.709605 667.772105L480.084605 292.3971049999999C485.724085 286.7572399999999 493.1120425 283.9375 500.5 283.9375S515.2759149999999 286.7572399999999 520.9155875 292.3969125L896.2905875 667.7719125000001C907.56974 679.041825 907.56974 697.333175 896.2905875 708.6030874999999z" />
    <glyph glyph-name="axp-icon-download-filled"
      unicode="&#xEA15;"
      horiz-adv-x="1001" d=" M847 904.75H154C122.154725 904.75 96.25 878.845275 96.25 847V154C96.25 122.154725 122.154725 96.25 154 96.25H847C878.845275 96.25 904.75 122.154725 904.75 154V847C904.75 878.845275 878.845275 904.75 847 904.75zM316.741425 540.0244849999999C328.0207700000001 551.3038300000001 346.2932550000001 551.3038300000001 357.5724075 540.0244849999999L471.625 425.979015V702.625C471.625 718.5757424999999 484.55869 731.5 500.5 731.5S529.375 718.5757424999999 529.375 702.625V425.979015L643.4273999999999 540.0244849999999C654.706745 551.3038300000001 672.9792299999999 551.3038300000001 684.2583825 540.0244849999999S695.5377275 510.463415 684.2583825 499.1935025L520.915395 335.8599475000001C515.2759149999999 330.220275 507.8879575 327.4003425 500.5 327.4003425S485.724085 330.2200824999999 480.0844125 335.859755L316.741425 499.1933099999999C305.46208 510.463415 305.46208 528.7453324999999 316.741425 540.0244849999999zM702.625 211.75H298.375C282.43369 211.75 269.5 224.6836900000001 269.5 240.625S282.43369 269.5 298.375 269.5H702.625C718.5663099999999 269.5 731.5 256.56631 731.5 240.625S718.5663099999999 211.75 702.625 211.75z" />
    <glyph glyph-name="axp-icon-download"
      unicode="&#xEA16;"
      horiz-adv-x="1001" d=" M298.375 211.75H702.625C718.5663099999999 211.75 731.5 224.6836900000001 731.5 240.625S718.5663099999999 269.5 702.625 269.5H298.375C282.4242575 269.5 269.5 256.56631 269.5 240.625S282.4242575 211.75 298.375 211.75z M480.0844125 335.8599475000001C485.724085 330.220275 493.1120425 327.4003425 500.5 327.4003425S515.2759149999999 330.2200824999999 520.9155875 335.859755L684.2585750000001 499.1933099999999C695.5379200000001 510.4632225 695.5379200000001 528.74514 684.2585750000001 540.0242925S654.7067450000001 551.3036374999999 643.4275925000001 540.0242925L529.375 425.979015V702.625C529.375 718.5757424999999 516.4413099999999 731.5 500.5 731.5S471.625 718.5757424999999 471.625 702.625V425.979015L357.5726 540.0244849999999C346.293255 551.3038300000001 328.02077 551.3038300000001 316.7416175 540.0244849999999S305.4622725 510.463415 316.7416175 499.1935025L480.0844125 335.8599475000001z M847 904.75H154C122.154725 904.75 96.25 878.845275 96.25 847V154C96.25 122.154725 122.154725 96.25 154 96.25H847C878.845275 96.25 904.75 122.154725 904.75 154V847C904.75 878.845275 878.845275 904.75 847 904.75zM846.9247325 154H154V847H847L846.9247325 154z" />
    <glyph glyph-name="axp-icon-duration-filled"
      unicode="&#xEA17;"
      horiz-adv-x="1001" d=" M500.5 731.5C372.92178 731.5 269.5 628.07822 269.5 500.5C269.5 372.922935 372.92178 269.5 500.5 269.5S731.5 372.922935 731.5 500.5C731.5 628.07822 628.07822 731.5 500.5 731.5zM593.006645 361.479195C581.7344225 350.2069725000001 564.2808325000001 349.3703675000001 554.02732 359.6240725L455.032655 458.6187375C455.032655 458.6187375 447.4720250000001 465.9102525 447.4720250000001 475.5587375V622.3024499999999C447.4720250000001 636.8034749999999 460.4057150000001 648.5527124999999 476.3470250000001 648.5527124999999S505.2220250000001 636.8034749999999 505.2220250000001 622.3024499999999V490.0996099999999L594.863115 400.4585199999999C605.1166274999999 390.2050075 604.2788675 372.7514175 593.006645 361.479195z M875.875 529.375C859.9277225000001 529.375 847 516.4472775 847 500.5C847 309.4393225 691.5606775 154 500.5 154S154 309.4393225 154 500.5S309.4393225 847 500.5 847C610.70933 847 708.95902 795.19286 772.4614975000001 714.74557L727.5627975 714.719775C711.63554 714.6693399999999 698.6772100000001 701.7708775 698.7101275 685.8307225C698.7078174999999 669.8774774999999 711.639005 656.96169 727.5922499999999 656.96862L843.0934049999998 657.0356099999999C844.4986549999999 657.03792 845.8709874999998 657.1401375 847.229075 657.336295C861.2213224999999 659.3488825 871.9684049999998 671.3789774999999 871.946075 685.9246624999998L871.8885175 801.4281274999998C871.8919825 817.3719399999999 858.9596399999999 830.2971599999998 843.00755 830.29023C827.11783 830.2361374999999 814.13717 817.3625075 814.1548799999999 801.4011774999999L814.1783650000001 755.0949175C740.078185 846.32086 627.1911799999999 904.75 500.5 904.75C277.238115 904.75 96.25 723.761885 96.25 500.5S277.238115 96.25 500.5 96.25C723.7595749999999 96.25 904.75 277.238115 904.75 500.5C904.75 516.4472775 891.8222774999999 529.375 875.875 529.375z" />
    <glyph glyph-name="axp-icon-duration"
      unicode="&#xEA18;"
      horiz-adv-x="1001" d=" M447.4720250000001 475.5587375V622.30245C447.4720250000001 636.8034749999999 460.405715 648.5527125 476.347025 648.5527125S505.222025 636.8034749999999 505.222025 622.30245V489.7155725000001L594.47773 400.4587125000001C604.7312425 390.2052 603.8936749999999 372.7516100000001 592.62126 361.4793875000001S563.8954475 349.3705600000001 553.641935 359.6242650000001L454.64727 458.6189300000001C454.64727 458.618545 447.4720250000001 465.9100599999999 447.4720250000001 475.5587375z M875.875 529.375C859.9277225000001 529.375 847 516.4472775 847 500.5C847 309.4393225 691.5606775 154 500.5 154S154 309.4393225 154 500.5S309.4393225 847 500.5 847C610.70933 847 708.95902 795.19286 772.4614975000001 714.74557L727.5627975 714.719775C711.63554 714.6693399999999 698.6772100000001 701.7708775 698.7101275 685.8307225C698.7078174999999 669.8774774999999 711.639005 656.96169 727.5922499999999 656.96862L843.0934049999998 657.0356099999999C844.4986549999999 657.03792 845.8709874999998 657.1401375 847.229075 657.336295C861.2213224999999 659.3488825 871.9684049999998 671.3789774999999 871.946075 685.9246624999998L871.8885175 801.4281274999998C871.8919825 817.3719399999999 858.9596399999999 830.2971599999998 843.00755 830.29023C827.11783 830.2361374999999 814.13717 817.3625075 814.1548799999999 801.4011774999999L814.1783650000001 755.0949175C740.078185 846.32086 627.1911799999999 904.75 500.5 904.75C277.238115 904.75 96.25 723.761885 96.25 500.5S277.238115 96.25 500.5 96.25C723.7595749999999 96.25 904.75 277.238115 904.75 500.5C904.75 516.4472775 891.8222774999999 529.375 875.875 529.375z" />
    <glyph glyph-name="axp-icon-email-filled"
      unicode="&#xEA19;"
      horiz-adv-x="1001" d=" M501.3083075 429.741235L917.1348725 845.5772325C913.1331825 846.4631175 909.0079075 847 904.75 847H96.25C92.457365 847 88.76098 846.5816975 85.167005 845.8744525L501.3083075 429.741235z M521.723895 368.4946650000001C516.0842225 362.8549925000001 508.696265 360.0352525000001 501.3083075 360.0352525000001S486.5323925000001 362.8549925 480.8927200000001 368.4946650000001L41.7838575 807.59525C39.81362 801.7946475 38.5 795.694515 38.5 789.25V211.75C38.5 179.98827 64.487115 154 96.25 154H904.75C936.512885 154 962.5 179.98827 962.5 211.75V789.25C962.5 795.2479149999999 961.3132375 800.9276275 959.596715 806.3769175L521.723895 368.4946650000001z" />
    <glyph glyph-name="axp-icon-email"
      unicode="&#xEA1A;"
      horiz-adv-x="1001" d=" M904.75 847H96.25C64.48827 847 38.5 821.012885 38.5 789.25V211.75C38.5 179.98827 64.48827 154 96.25 154H904.75C936.512885 154 962.5 179.98827 962.5 211.75V789.25C962.5 821.012885 936.512885 847 904.75 847zM500.5 432.2978275000001L143.538395 789.25H857.4521725L500.5 432.2978275000001zM96.25 211.75V754.87643L480.0844125 371.05145C485.724085 365.4117775 493.1120425 362.5920375 500.5 362.5920375S515.2759149999999 365.4117774999999 520.9155875 371.05145L904.75 754.88567V211.75H96.25z" />
    <glyph glyph-name="axp-icon-help-filled"
      unicode="&#xEA1B;"
      horiz-adv-x="1001" d=" M500.5 962.5C245.344715 962.5 38.5 755.655285 38.5 500.5S245.344715 38.5 500.5 38.5S962.5 245.344715 962.5 500.5S755.655285 962.5 500.5 962.5zM496.6498075 269.5C478.044875 269.5 462.9623075 284.5825675 462.9623075 303.1875S478.044875 336.875 496.6498075 336.875S530.3373075000001 321.7924325 530.3373075000001 303.1875S515.2547400000001 269.5 496.6498075 269.5zM526.4988575 466.762065V414.2698175000001C526.4988575 398.3285075000001 513.5651675 385.3948175000001 497.6238575 385.3948175000001S468.7488575 398.3285075000001 468.7488575 414.2698175000001V493.0275350000001C468.7488575 508.9782775 481.6825475000001 521.9025350000001 497.6238575 521.9025350000001C497.6438775 521.9025350000001 497.6638975 521.8965675000001 497.683725 521.8965675000001C498.501465 521.9681775000001 499.2874425 522.1456625000001 500.1240475 522.1468175000001C548.098705 522.2407575 587.125 556.1538675 587.125 597.7369475C587.125 639.4233999999999 548.0045725 673.34575 499.9173024999999 673.34575C455.119665 673.34575 418.067265 643.9536949999999 413.68712 604.9649374999999C411.938835 589.1175675 397.6516775 577.7629549999999 381.7854425000001 579.483135C365.9380725000001 581.2597174999999 354.5270575 595.5466824999999 356.3130725000001 611.3940525C363.9453125000001 679.6337625 425.6808325000001 731.0955575 499.9173025000001 731.0955575C579.8498475 731.0955575 644.875 671.26829 644.875 597.7367549999999C644.875 532.6330625 593.748155 478.29859 526.4988575 466.762065z" />
    <glyph glyph-name="axp-icon-help"
      unicode="&#xEA1C;"
      horiz-adv-x="1001" d=" M500.5 962.5C245.344715 962.5 38.5 755.655285 38.5 500.5S245.344715 38.5 500.5 38.5S962.5 245.344715 962.5 500.5S755.655285 962.5 500.5 962.5zM500.5 96.25C277.5952025 96.25 96.25 277.5952025000001 96.25 500.5S277.5952025 904.75 500.5 904.75S904.75 723.4047975000001 904.75 500.5S723.4047975 96.25 500.5 96.25z M462.9623075 303.1875C462.9623075 284.5824074900752 478.0447149900751 269.5 496.6498075 269.5C515.2549000099249 269.5 530.3373075000001 284.5824074900752 530.3373075000001 303.1875C530.3373075000001 321.7925925099248 515.2549000099249 336.875 496.6498075 336.875C478.0447149900751 336.875 462.9623075 321.7925925099248 462.9623075 303.1875z M499.9173024999999 731.09575C425.68064 731.09575 363.9453125 679.633955 356.3130725 611.394245C354.52725 595.546875 365.9380725 581.2597175 381.7854425 579.4833274999999C397.6516775 577.7631475 411.938835 589.1177599999999 413.68712 604.96513C418.067265 643.9538875 455.1196649999999 673.3459425 499.9173024999999 673.3459425C548.0047649999999 673.3459425 587.125 639.4233999999999 587.125 597.73714C587.125 556.15406 548.098705 522.2409499999999 500.1240475 522.1470099999999C499.2874425 522.145855 498.501465 521.9683699999999 497.683725 521.8967599999999C497.663705 521.8967599999999 497.643685 521.9027274999999 497.6238575 521.9027274999999C481.6825475000001 521.9027274999999 468.7488575 508.9784699999999 468.7488575 493.0277274999999V414.2700099999999C468.7488575 398.3286999999999 481.6825475000001 385.3950099999999 497.6238575 385.3950099999999S526.4988575 398.3286999999999 526.4988575 414.2700099999999V466.7622574999999C593.748155 478.29859 644.875 532.6330625 644.875 597.7369475C644.875 671.2684825 579.8498475 731.09575 499.9173024999999 731.09575z" />
    <glyph glyph-name="axp-icon-home-filled"
      unicode="&#xEA1D;"
      horiz-adv-x="1001" d=" M890.18083 520.5302025000001L534.41311 890.0304875C517.34375 908.7541925 483.11109 908.133765 467.16978 890.613185L110.27401 519.9473125C98.0546875 506.5531625 94.8965325 487.180925 102.2469525 470.4782775C109.5973725 453.9165399999999 126.046305 443.2198925 144.1495825 443.2198925H231V141.7995424999999C231 116.5150524999999 251.56593 95.9491224999999 276.85042 95.9491224999999H375.375C391.31631 95.9491224999999 404.25 108.8828125 404.25 124.8241224999999C404.25 125.0297125 404.1935975 125.22125 404.1889775 125.4256849999999H404.25V229.64634C404.25 283.6741600000001 447.43083 327.62576 500.5 327.62576S596.75 283.6741600000001 596.75 229.64634V124.8241224999999C596.75 108.8828125 609.6836900000001 95.9491224999999 625.625 95.9491224999999H724.14958C749.43407 95.9491224999999 770 116.5150524999999 770 141.7995424999999V443.2198924999999H856.85061C874.9538875 443.2198924999999 891.4028199999999 453.9163474999999 898.8096425 470.5910825C906.1034675 487.1811175 902.9453125 506.5531625 890.18083 520.5302025000001z" />
    <glyph glyph-name="axp-icon-home"
      unicode="&#xEA1E;"
      horiz-adv-x="1001" d=" M890.18083 520.5302025000001L534.41311 890.0304875C517.34375 908.7541925 483.11109 908.133765 467.16978 890.613185L110.2457125 519.9286400000001C98.045255 506.5061925 94.8871 487.124715 102.2373275 470.4782775C109.60642 453.9165399999999 126.0553525 443.2198925 144.14939 443.2198925H231V141.7995424999999C231 116.5150524999999 251.56593 95.9491224999999 276.8409875 95.9491224999999H375.375C391.31631 95.9491224999999 404.25 108.8828125 404.25 124.8241224999999C404.25 125.0297125 404.1935975 125.22125 404.1889775 125.4256849999999H404.25V229.64634C404.25 283.6741600000001 447.43083 327.62576 500.5 327.62576S596.75 283.6741600000001 596.75 229.64634V124.8241224999999C596.75 108.8828125 609.6836900000001 95.9491224999999 625.625 95.9491224999999H724.14958C749.43407 95.9491224999999 770 116.5150524999999 770 141.7995424999999V443.2198924999999H856.85061C874.9538875 443.2198924999999 891.4028199999999 453.9163474999999 898.8096425 470.5910825C906.1034675 487.1811175 902.9453125 506.5531625 890.18083 520.5302025000001zM741.125 500.9698925C725.1836900000001 500.9698925 712.25 488.0456350000001 712.25 472.0948925V153.6991224999999H654.5V229.64634C654.5 315.519435 585.4142525 385.37576 500.5 385.37576S346.5 315.5192425 346.5 229.64634V153.6991224999999H288.75V472.0948925C288.75 488.0456350000001 275.8257425 500.9698925 259.875 500.9698925H172.1502475L500.5 841.9901875L828.859185 500.970085H741.125z" />
    <glyph glyph-name="axp-icon-info-filled"
      unicode="&#xEA1F;"
      horiz-adv-x="1001" d=" M500.5 38.5C755.655285 38.5 962.5 245.344715 962.5 500.5S755.655285 962.5 500.5 962.5S38.5 755.655285 38.5 500.5S245.344715 38.5 500.5 38.5zM529.375 320.03125C529.375 304.0805075000001 516.4413099999999 291.15625 500.5 291.15625S471.625 304.0805075000001 471.625 320.03125V589.53125C471.625 605.4725599999999 484.55869 618.40625 500.5 618.40625S529.375 605.4725599999999 529.375 589.53125V320.03125zM500.5 719.46875C519.1049325 719.46875 534.1875 704.3861825 534.1875 685.78125S519.1049325 652.09375 500.5 652.09375S466.8125 667.1763175 466.8125 685.78125S481.8950675 719.46875 500.5 719.46875z" />
    <glyph glyph-name="axp-icon-info"
      unicode="&#xEA20;"
      horiz-adv-x="1001" d=" M500.5 962.5C245.344715 962.5 38.5 755.655285 38.5 500.5S245.344715 38.5 500.5 38.5S962.5 245.344715 962.5 500.5S755.655285 962.5 500.5 962.5zM500.5 96.25C277.5952025 96.25 96.25 277.5952025000001 96.25 500.5S277.5952025 904.75 500.5 904.75S904.75 723.4047975000001 904.75 500.5S723.4047975 96.25 500.5 96.25z M466.8125 685.78125C466.8125 667.1761574900752 481.8949074900751 652.09375 500.5 652.09375C519.1050925099248 652.09375 534.1875 667.1761574900752 534.1875 685.78125C534.1875 704.3863425099248 519.1050925099248 719.46875 500.5 719.46875C481.8949074900751 719.46875 466.8125 704.3863425099248 466.8125 685.78125z M500.5 618.40625C484.55869 618.40625 471.625 605.4819925 471.625 589.53125V320.03125C471.625 304.0899400000001 484.55869 291.15625 500.5 291.15625S529.375 304.0899400000001 529.375 320.03125V589.53125C529.375 605.4819925 516.4413099999999 618.40625 500.5 618.40625z" />
    <glyph glyph-name="axp-icon-insurance-filled"
      unicode="&#xEA21;"
      horiz-adv-x="1001" d=" M827.0874150000001 854.5735275C816.5189725 863.7392225 803.0601425 868.6960975 789.251155 868.6960975C786.5347875000001 868.6960975 783.8064850000001 868.5045600000001 781.0829950000001 868.11571C781.0758725000002 868.11571 766.6818775000002 866.2016825000001 744.4910550000001 866.2016825000001C694.8797625000001 866.2016825000001 602.6468525 875.6645975 542.3342925000001 939.040025C531.4334024999999 950.494545 516.3121425 956.9777525 500.5 956.9777525S469.5665975000001 950.494545 458.66667 939.0402175C398.352955 875.6645975 306.1059925 866.201875 256.4864225 866.201875C234.2592175 866.201875 219.8744625 868.1216775 219.7323975 868.1416975C217.133455 868.49532 214.526235 868.6691475 211.932105 868.6691475C198.0326425 868.6691475 184.4494575 863.6722325000001 173.865615 854.430115C161.30807 843.46339 154 827.61833 154 810.94629V405.7070325C154 311.10772 210.298935 220.64658 321.3342825 136.8380474999999C398.0216625 78.9552224999999 474.0641675 45.25598 477.2635175 43.849575C484.6678375 40.5961325 492.5834374999999 38.9689299999999 500.5 38.9689299999999S516.3321625 40.5961325 523.7364825 43.849575C526.9358325000001 45.2559799999999 602.9783375000001 78.9552224999999 679.6657175 136.8380474999999C790.7010650000001 220.64658 847 311.10772 847 405.70684V810.94629C847 827.6878225 839.7354349999999 843.6044925 827.0874150000001 854.5735275zM664.125 471.625H529.375V336.875C529.375 320.9336900000001 516.4413099999999 308 500.5 308S471.625 320.9336900000001 471.625 336.875V471.625H336.875C320.93369 471.625 308 484.5492575 308 500.5S320.93369 529.375 336.875 529.375H471.625V664.125C471.625 680.0757425 484.55869 693 500.5 693S529.375 680.0757425 529.375 664.125V529.375H664.125C680.0663099999999 529.375 693 516.4507425 693 500.5S680.0663099999999 471.625 664.125 471.625z" />
    <glyph glyph-name="axp-icon-insurance"
      unicode="&#xEA22;"
      horiz-adv-x="1001" d=" M827.0874150000001 854.5735275C816.5189725 863.7392225 803.0601425 868.6960975 789.251155 868.6960975C786.5347875000001 868.6960975 783.8064850000001 868.5045600000001 781.0829950000001 868.11571C781.0758725000002 868.11571 766.6818775000002 866.2016825000001 744.4910550000001 866.2016825000001C694.8797625000001 866.2016825000001 602.6468525 875.6645975 542.3342925000001 939.040025C531.4334024999999 950.494545 516.3121425 956.9777525 500.5 956.9777525S469.5665975000001 950.494545 458.66667 939.0402175C398.352955 875.6645975 306.1059925 866.201875 256.48777 866.201875C234.25941 866.201875 219.874655 868.1216775 219.73259 868.1416975C217.1336475 868.49532 214.5264275 868.6691475 211.9322975 868.6691475C198.032835 868.6691475 184.44965 863.6722325000001 173.8658075 854.430115C161.30807 843.46339 154 827.61833 154 810.94629V405.7070325C154 311.10772 210.298935 220.64658 321.3342825 136.8380474999999C398.0216625 78.9552224999999 474.0641675 45.25598 477.2635175 43.849575C484.6678375 40.5961325 492.5834374999999 38.9689299999999 500.5 38.9689299999999S516.3321625 40.5961325 523.7364825 43.849575C526.9358325000001 45.2559799999999 602.9783375000001 78.9552224999999 679.6657175 136.8380474999999C790.7010650000001 220.64658 847 311.10772 847 405.70684V810.94629C847 827.6878225 839.7354349999999 843.6044925 827.0874150000001 854.5735275zM789.25 405.70684C789.25 223.6249399999999 500.5 96.7187375 500.5 96.7187375S211.75 223.6249399999999 211.75 405.70684C211.75 587.789895 211.75 810.9460975 211.75 810.9460975S229.1858800000001 808.4516825 256.48777 808.4516825C316.9612600000001 808.4516825 425.7464750000001 820.67909 500.5 899.2277525C575.253525 820.6792825 684.0387400000001 808.4516825 744.4912475 808.4516825C771.79179 808.451875 789.25 810.94629 789.25 810.94629S789.25 587.7900875 789.25 405.70684z M664.125 529.375H529.375V664.125C529.375 680.0757425 516.4413099999999 693 500.5 693S471.625 680.0757425 471.625 664.125V529.375H336.875C320.93369 529.375 308 516.4507425 308 500.5S320.93369 471.625 336.875 471.625H471.625V336.875C471.625 320.9336900000001 484.55869 308 500.5 308S529.375 320.9336900000001 529.375 336.875V471.625H664.125C680.0663099999999 471.625 693 484.5492575 693 500.5S680.0663099999999 529.375 664.125 529.375z" />
    <glyph glyph-name="axp-icon-left-filled"
      unicode="&#xEA23;"
      horiz-adv-x="1001" d=" M390.48933 500.5L712.588415 822.5990850000001C731.387195 841.3884325 731.387195 871.861375 712.588415 890.6509149999999C693.7896350000001 909.449695 663.3355575 909.449695 644.5365850000001 890.6509149999999L288.4115850000001 534.5259149999999C269.6128050000001 515.7365675 269.6128050000001 485.263625 288.4115850000001 466.4740849999999L644.5365850000001 110.349085C653.935975 100.949695 666.2492374999999 96.25 678.5625 96.25S703.189025 100.949695 712.588415 110.349085C731.387195 129.1478649999999 731.387195 159.6019425 712.588415 178.400915L390.48933 500.5z" />
    <glyph glyph-name="axp-icon-left"
      unicode="&#xEA24;"
      horiz-adv-x="1001" d=" M353.6434825 500.5L708.6030875 855.4594125C719.8824325 866.729325 719.8824325 885.0204825 708.6030875 896.290395C697.3237425 907.56974 679.0512575 907.56974 667.7721049999999 896.290395L292.397105 520.915395C281.1177599999999 509.6454825 281.1177599999999 491.354325 292.397105 480.0844125L667.7721049999999 104.7094125C673.411585 99.0697399999999 680.7995425 96.25 688.1875 96.25S702.963415 99.0697399999999 708.6030875 104.7094125C719.8824325 115.9887575 719.8824325 134.2612425 708.6030875 145.5403950000001L353.6434825 500.5z" />
    <glyph glyph-name="axp-icon-location-filled"
      unicode="&#xEA25;"
      horiz-adv-x="1001" d=" M500.5 962.5C309.4393225 962.5 154 804.7039 154 610.7457125C154 432.8630075 424.948755 97.3085575000001 455.843465 59.632265C466.8125 46.2556324999999 483.20041 38.5 500.5 38.5C517.798435 38.5 534.186345 46.2556324999999 545.1553799999999 59.632265C576.051245 97.3085574999999 847 432.8630075 847 610.7457125C847 804.7039 691.5606775 962.5 500.5 962.5zM500.5 500.5C436.8131075 500.5 385 552.3131075 385 616S436.8131075 731.5 500.5 731.5S616 679.6868925 616 616S564.1868925 500.5 500.5 500.5z" />
    <glyph glyph-name="axp-icon-location"
      unicode="&#xEA26;"
      horiz-adv-x="1001" d=" M500.5 904.75C659.96546 904.75 789.25 773.095015 789.25 610.74552C789.25 448.37793 500.5 96.25 500.5 96.25S211.75 448.37793 211.75 610.7455199999999C211.75 773.095015 341.0345400000001 904.75 500.5 904.75M500.5 962.5C309.4391300000001 962.5 154 804.7037075000001 154 610.7455199999999C154 432.8631999999999 424.94914 97.3077875 455.8440425000001 59.6314950000001C466.81327 46.2548625000001 483.2009875 38.5 500.5 38.5S534.18673 46.2548625000001 545.1559575 59.6314950000001C576.0508600000001 97.3077875 847 432.8632 847 610.7455199999999C847 804.7037075000001 691.56087 962.5 500.5 962.5L500.5 962.5z M500.5 731.5C564.1868925 731.5 616 679.6868925 616 616S564.1868925 500.5 500.5 500.5S385 552.3131075 385 616S436.8131075 731.5 500.5 731.5M500.5 789.25C404.8167200000001 789.25 327.25 711.68328 327.25 616S404.8167200000001 442.75 500.5 442.75S673.75 520.31672 673.75 616S596.18328 789.25 500.5 789.25L500.5 789.25z" />
    <glyph glyph-name="axp-icon-lock-filled"
      unicode="&#xEA27;"
      horiz-adv-x="1001" d=" M789.25 673.75H664.125V744.3337825C664.125 832.5625 590.4935575000001 904.75 500.5 904.75S336.875 832.5625 336.875 744.3337825V673.75H211.75C179.987115 673.75 154 647.7628850000001 154 616V154C154 122.23827 179.987115 96.25 211.75 96.25H789.25C821.012885 96.25 847 122.23827 847 154V616C847 647.7628850000001 821.012885 673.75 789.25 673.75zM394.625 744.3337825C394.625 800.94399 442.1203325 847 500.5 847S606.375 800.94399 606.375 744.3337825V673.75H423.5H394.625V744.3337825zM529.375 393.00954V298.375C529.375 282.4336900000001 516.4413099999999 269.5 500.5 269.5S471.625 282.4336900000001 471.625 298.375V393.00954C454.435905 403.0139575000001 442.75 421.4287 442.75 442.75C442.75 474.6445550000001 468.605445 500.5 500.5 500.5S558.25 474.6445550000001 558.25 442.75C558.25 421.4287 546.564095 403.0139575000001 529.375 393.00954z" />
    <glyph glyph-name="axp-icon-lock"
      unicode="&#xEA28;"
      horiz-adv-x="1001" d=" M789.25 673.75H664.125V744.3337825C664.125 832.5625 590.4935575000001 904.75 500.5 904.75S336.875 832.5625 336.875 744.3337825V673.75H211.75C179.98827 673.75 154 647.7628850000001 154 616V154C154 122.23827 179.98827 96.25 211.75 96.25H789.25C821.012885 96.25 847 122.23827 847 154V616C847 647.7628850000001 821.012885 673.75 789.25 673.75zM394.625 744.3337825C394.625 800.94399 442.1203325 847 500.5 847S606.375 800.94399 606.375 744.3337825V673.75H423.5H394.625V744.3337825zM789.25 154H211.75V616H336.875H664.125H789.25V154z M500.5 500.5C468.605445 500.5 442.75 474.6445550000001 442.75 442.75C442.75 421.4287 454.435905 403.0139575000001 471.625 393.00954V298.375C471.625 282.4336900000001 484.55869 269.5 500.5 269.5S529.375 282.4336900000001 529.375 298.375V393.00954C546.564095 403.0139575000001 558.25 421.4287 558.25 442.75C558.25 474.6445550000001 532.3945550000001 500.5 500.5 500.5z" />
    <glyph glyph-name="axp-icon-minus-filled"
      unicode="&#xEA29;"
      horiz-adv-x="1001" d=" M914.375 452.375H86.625C60.043445 452.375 38.5 473.918445 38.5 500.5S60.043445 548.625 86.625 548.625H914.375C940.956555 548.625 962.5 527.081555 962.5 500.5S940.956555 452.375 914.375 452.375z" />
    <glyph glyph-name="axp-icon-minus"
      unicode="&#xEA2A;"
      horiz-adv-x="1001" d=" M933.625 471.625H67.375C51.4242575 471.625 38.5 484.5492575 38.5 500.5S51.4242575 529.375 67.375 529.375H933.625C949.56631 529.375 962.5 516.4507425 962.5 500.5S949.56631 471.625 933.625 471.625z" />
    <glyph glyph-name="axp-icon-minuscircle-filled"
      unicode="&#xEA2B;"
      horiz-adv-x="1001" d=" M500.5 962.5C245.344715 962.5 38.5 755.655285 38.5 500.5S245.344715 38.5 500.5 38.5S962.5 245.344715 962.5 500.5S755.655285 962.5 500.5 962.5zM702.625 471.625H298.375C282.43369 471.625 269.5 484.5492575 269.5 500.5S282.43369 529.375 298.375 529.375H702.625C718.5663099999999 529.375 731.5 516.4507425 731.5 500.5S718.5663099999999 471.625 702.625 471.625z" />
    <glyph glyph-name="axp-icon-minuscircle"
      unicode="&#xEA2C;"
      horiz-adv-x="1001" d=" M500.5 904.75C723.40422 904.75 904.75 723.40422 904.75 500.5S723.40422 96.25 500.5 96.25S96.25 277.59578 96.25 500.5S277.59578 904.75 500.5 904.75M500.5 962.5C245.34433 962.5 38.5 755.65567 38.5 500.5S245.34433 38.5 500.5 38.5S962.5 245.3445225000001 962.5 500.5S755.6554775 962.5 500.5 962.5L500.5 962.5z M702.625 471.625H298.375C282.4242575 471.625 269.5 484.5492575 269.5 500.5S282.4242575 529.375 298.375 529.375H702.625C718.5663099999999 529.375 731.5 516.4507425 731.5 500.5S718.5663099999999 471.625 702.625 471.625z" />
    <glyph glyph-name="axp-icon-mobile-filled"
      unicode="&#xEA2D;"
      horiz-adv-x="1001" d=" M673.75 962.5H327.25C295.487115 962.5 269.5 936.512885 269.5 904.75V789.25V731.5V269.5V211.75V96.25C269.5 64.4882699999999 295.487115 38.5 327.25 38.5H673.75C705.512885 38.5 731.5 64.4882699999999 731.5 96.25V211.75V269.5V731.5V789.25V904.75C731.5 936.512885 705.512885 962.5 673.75 962.5zM442.75 875.875H558.25C574.1913099999999 875.875 587.125 862.9507425 587.125 847S574.1913099999999 818.125 558.25 818.125H442.75C426.80869 818.125 413.875 831.0492575000001 413.875 847S426.80869 875.875 442.75 875.875zM500.5 125.125C484.5527225 125.125 471.625 138.0527225000001 471.625 154S484.5527225 182.875 500.5 182.875S529.375 169.9472774999999 529.375 154S516.4472775 125.125 500.5 125.125zM673.75 269.5H327.25V731.5H673.75V269.5z" />
    <glyph glyph-name="axp-icon-mobile"
      unicode="&#xEA2E;"
      horiz-adv-x="1001" d=" M673.75 962.5H327.25C295.487115 962.5 269.5 936.512885 269.5 904.75V789.25V731.5V269.5V211.75V96.25C269.5 64.4882699999999 295.487115 38.5 327.25 38.5H673.75C705.512885 38.5 731.5 64.4882699999999 731.5 96.25V211.75V269.5V731.5V789.25V904.75C731.5 936.512885 705.512885 962.5 673.75 962.5zM673.75 96.25H327.25V211.75H673.75V96.25zM673.75 269.5H327.25V731.5H673.75V269.5zM327.25 789.25V904.75H673.75V789.25H327.25z M471.625 154C471.625 138.0527778486359 484.5527778486358 125.125 500.5 125.125C516.4472221513641 125.125 529.375 138.0527778486359 529.375 154C529.375 169.9472221513642 516.4472221513641 182.875 500.5 182.875C484.5527778486358 182.875 471.625 169.9472221513642 471.625 154z M558.25 875.875H442.75C426.80869 875.875 413.875 862.9507425 413.875 847S426.80869 818.125 442.75 818.125H558.25C574.1913099999999 818.125 587.125 831.0492575000001 587.125 847S574.1913099999999 875.875 558.25 875.875z" />
    <glyph glyph-name="axp-icon-neutral-filled"
      unicode="&#xEA2F;"
      horiz-adv-x="1001" d=" M500.5 962.5C245.344715 962.5 38.5 755.655285 38.5 500.5S245.344715 38.5 500.5 38.5S962.5 245.344715 962.5 500.5S755.655285 962.5 500.5 962.5zM471.625 680.96875C471.625 696.9194924999999 484.55869 709.84375 500.5 709.84375S529.375 696.9194924999999 529.375 680.96875V411.46875C529.375 395.5274400000001 516.4413099999999 382.59375 500.5 382.59375S471.625 395.5274400000001 471.625 411.46875V680.96875zM500.5 281.53125C481.8950675 281.53125 466.8125 296.6138175 466.8125 315.21875S481.8950675 348.90625 500.5 348.90625S534.1875 333.8236825 534.1875 315.21875S519.1049325 281.53125 500.5 281.53125z" />
    <glyph glyph-name="axp-icon-neutral"
      unicode="&#xEA30;"
      horiz-adv-x="1001" d=" M500.5 904.75C723.40422 904.75 904.75 723.40422 904.75 500.5S723.40422 96.25 500.5 96.25S96.25 277.59578 96.25 500.5S277.59578 904.75 500.5 904.75M500.5 962.5C245.34433 962.5 38.5 755.65567 38.5 500.5S245.34433 38.5 500.5 38.5S962.5 245.3445225000001 962.5 500.5S755.6554775 962.5 500.5 962.5L500.5 962.5z M466.8125 315.21875C466.8125 296.6136574900752 481.8949074900751 281.53125 500.5 281.53125C519.1050925099248 281.53125 534.1875 296.6136574900752 534.1875 315.21875C534.1875 333.8238425099248 519.1050925099248 348.90625 500.5 348.90625C481.8949074900751 348.90625 466.8125 333.8238425099248 466.8125 315.21875z M500.5 382.59375C484.55869 382.59375 471.625 395.5274400000001 471.625 411.46875V680.96875C471.625 696.9194924999999 484.55869 709.84375 500.5 709.84375S529.375 696.9194924999999 529.375 680.96875V411.46875C529.375 395.5274400000001 516.4413099999999 382.59375 500.5 382.59375z" />
    <glyph glyph-name="axp-icon-offers-filled"
      unicode="&#xEA31;"
      horiz-adv-x="1001" d=" M904.68301 500.5L939.9719175 609.2253475C947.3716175 632.02601 939.2598599999998 656.99788 919.874725 671.09812L827.510145 738.2792725L792.22605 846.9928775C784.8180725 869.81587 763.55433 885.2707325 739.5588200000001 885.2707325H625.418255L534.3954 951.4768725C524.291075 958.825945 512.396115 962.5 500.5 962.5S476.708925 958.825945 466.6046 951.4768725L375.581745 885.270925H261.440025C237.44567 885.270925 216.1819275 869.81587 208.7739500000001 846.99307L173.4896625 738.2794650000001L81.1250825 671.0983125C61.7399475 656.9980725 53.62819 632.0262025 61.029045 609.22554L96.31699 500.5L61.0292375 391.7746525C53.6283825 368.975145 61.74014 344.0021200000001 81.125275 329.90188L173.489855 262.7207275L208.7741425 154.0071224999999C216.18212 131.18413 237.4458625000001 115.7292675 261.4413725000001 115.7292675H375.5819375000001L466.6046 49.52332C476.708925 42.17521 488.603885 38.5 500.5 38.5S524.291075 42.17521 534.3954 49.5231275L625.4180625 115.729075H739.5586275000001C763.5541374999999 115.729075 784.8180725 131.18413 792.2258575 154.00693L827.510145 262.7205350000001L919.874725 329.9016875000001C939.2598599999998 344.0019275000001 947.3716175 368.975145 939.9719175 391.7744600000001L904.68301 500.5zM390.7619100000001 674.4397275C401.4125500000001 670.0549625000001 410.1788075 661.2887049999999 414.5635725000001 650.638065C431.7738425000001 608.8364975 392.1611925000001 569.2261575 350.3607800000001 586.43662C339.7112950000001 590.821385 330.9450375 599.5887974999999 326.5602725000001 610.2382825C309.3523125000001 652.0385025 348.9614975 691.6488425 390.7619100000001 674.4397275zM376.5405875 335.7094125C370.900915 330.0697399999999 363.5129575000001 327.25 356.125 327.25C344.709365 327.25 333.292575 333.9834575 328.3274225 347.4494100000001C324.6264175 357.48559 328.019615 368.8519450000001 335.58371 376.41604L624.4594125 665.2905874999999C635.7387575 676.5699325 654.0112425 676.5699325 665.2903950000001 665.2905874999999C676.56974 654.020675 676.56974 635.7295174999999 665.2903950000001 624.459605L376.5405875 335.7094125zM610.23578 326.5614275000001C599.586295 330.9461925000001 590.8200375 339.7136050000001 586.4352725 350.36309C569.2273124999999 392.1635025 608.8364975 431.7738424999999 650.6367174999999 414.564535C661.2873575 410.17977 670.053615 401.4135124999999 674.4383799999999 390.7628725C691.6488425000001 348.9614975000001 652.0361925000001 309.3511574999999 610.23578 326.5614275000001z" />
    <glyph glyph-name="axp-icon-offers"
      unicode="&#xEA32;"
      horiz-adv-x="1001" d=" M905.57005 500.5L940.4289125 607.9059525C948.1470075 631.685285 939.687595 657.7299575 919.46932 672.4363799999999L828.2268225 738.8009474999999L793.371425 846.1928475C785.6462075 869.99682 763.4682825000001 886.1144599999999 738.4425125 886.1144599999999H625.6917975L534.46932 952.46613C524.3440125 959.8306025 512.4219099999999 963.5127425 500.5 963.5127425S476.6559875 959.8306025 466.5304875 952.46613L375.30801 886.11446H262.557295C237.5313325 886.11446 215.3534075 869.995665 207.6283825 846.1928475L172.772985 738.8009474999999L81.5304875 672.4363799999999C61.312405 657.7297649999999 52.8528 631.685285 60.570895 607.9059525L95.42995 500.5L60.5710875 393.0940475C52.8529925 369.3147150000001 61.312405 343.2700425000001 81.531835 328.56362L172.7731775 262.1990525L207.628575 154.8071525C215.3537925 131.004335 237.5317175 114.88554 262.5574875 114.88554H375.3082025L466.53068 48.53387C476.65618 41.1693974999999 488.57809 37.4872574999999 500.5001925 37.4872574999999S524.344205 41.1693974999999 534.469705 48.53387L625.6921825 114.88554H738.4440524999999C763.46886 114.88554 785.6467849999999 131.004335 793.372965 154.8071525L828.2283625 262.1990525L919.469705 328.56362C939.6877874999998 343.270235 948.1473925 369.3147150000001 940.4304525 393.0940475L905.57005 500.5zM885.5 375.266815L779.0892725 297.8685324999999L738.4427049999999 172.6353475H606.912075L500.5 95.2372574999999L394.0892725 172.63554H262.5574875L221.912075 297.8687250000001L115.5 375.266815L156.1454125 500.5L115.5 625.733185L221.9118825 703.1314675L262.557295 828.3646525H394.087925L500.5 905.7627425L606.9107275 828.36446H738.4425125L779.0879249999999 703.131275L885.5 625.733185L844.8545875000001 500.5L885.5 375.266815z M322.4375 630.4375C322.4375 603.858796414393 343.9837964143931 582.3125 370.5625 582.3125C397.141203585607 582.3125 418.6875 603.858796414393 418.6875 630.4375C418.6875 657.016203585607 397.141203585607 678.5625 370.5625 678.5625C343.9837964143931 678.5625 322.4375 657.016203585607 322.4375 630.4375z M665.2905875 665.2905874999999C654.0112425 676.5699325 635.7387575 676.5699325 624.4596049999999 665.2905874999999L335.709605 376.5405875C324.4302599999999 365.2612425 324.4302599999999 346.9887575 335.709605 335.7096049999999C341.349085 330.0697399999999 348.7370425 327.25 356.125 327.25S370.900915 330.0697399999999 376.5405875 335.7094125L665.2905875 624.4594125000001C676.5697399999999 635.729325 676.5697399999999 654.020675 665.2905875 665.2905874999999z M582.3125 370.5625C582.3125 343.9837964143931 603.858796414393 322.4375 630.4375 322.4375C657.016203585607 322.4375 678.5625 343.9837964143931 678.5625 370.5625C678.5625 397.141203585607 657.016203585607 418.6875 630.4375 418.6875C603.858796414393 418.6875 582.3125 397.141203585607 582.3125 370.5625z" />
    <glyph glyph-name="axp-icon-paperless-filled"
      unicode="&#xEA33;"
      horiz-adv-x="1001" d=" M846.4594599999999 750.75C845.806115 757.12406 843.4504925 763.37569 838.565035 768.25749L652.9453699999999 953.8677225C648.01198 958.801305 641.6897025000001 961.17945 635.25 961.797375V962.498845H211.75C179.98827 962.498845 154 936.51173 154 904.748845V96.251155C154 64.4882700000002 179.98827 38.501155 211.75 38.501155H789.25C821.012885 38.501155 847 64.4882700000002 847 96.251155V747.7187025000001C847 747.8057125 847 747.8856000000001 847 747.9724175V750.75H846.4594599999999zM623.012005 418.81917C634.2913500000001 407.539825 634.2913500000001 389.26734 623.012005 377.9881875C617.3723325000001 372.3485150000002 609.984375 369.528775 602.5964175 369.528775S587.8205025000001 372.3485149999999 582.18083 377.9881875L500.5 459.6653600000001L418.81917 377.987995C413.1794975 372.3483225 405.79154 369.5285825 398.4035825000001 369.5285825S383.6276675000001 372.3483224999999 377.987995 377.987995C366.7086500000001 389.26734 366.7086500000001 407.539825 377.987995 418.8189775L459.6676700000001 500.4951875L377.9879950000002 582.1713975C366.7086500000001 593.4413099999999 366.7086500000001 611.7232274999999 377.9879950000002 623.0023799999999S407.5398250000001 634.2817249999999 418.8189775000001 623.0023799999999L500.5 541.3252075L582.18083 623.0025725C593.460175 634.2819175 611.73266 634.2819175 623.0118125 623.0025725S634.2911574999999 593.4415025 623.0118125 582.1715899999999L541.3321375 500.49538L623.012005 418.81917zM635.25 750.7511549999999V889.902475L774.409405 750.7511549999999H635.25z" />
    <glyph glyph-name="axp-icon-paperless"
      unicode="&#xEA34;"
      horiz-adv-x="1001" d=" M623.012005 623.0025725C611.73266 634.2819175 593.460175 634.2819175 582.1810225 623.0025725L500.5 541.3252075L418.81917 623.0025725C407.539825 634.2819175 389.26734 634.2819175 377.9881875000001 623.0025725S366.7088425 593.4415025 377.9881875000001 582.1715899999999L459.6678625 500.49538L377.9881875000001 418.8191700000001C366.7088425 407.5398250000001 366.7088425 389.2673400000001 377.9881875000001 377.9881875C383.6278600000001 372.3485150000002 391.0158175000001 369.528775 398.403775 369.528775S413.17969 372.3485149999999 418.8193625 377.9881875L500.5 459.6653600000001L582.18083 377.987995C587.8205025 372.3483225 595.2084600000001 369.5285825 602.5964175 369.5285825S617.3723325 372.3483224999999 623.012005 377.987995C634.2913500000001 389.26734 634.2913500000001 407.539825 623.012005 418.8189775L541.3323300000001 500.4951875L623.012005 582.1713975C634.2913500000001 593.4413099999999 634.2913500000001 611.7232275 623.012005 623.0025725z M847 747.9724175V750.75H846.4594599999999C845.806115 757.12406 843.4504925 763.37569 838.565035 768.25749L652.9453699999999 953.8677225C648.01198 958.801305 641.6897025000001 961.17945 635.25 961.797375V962.498845H211.75C179.98827 962.498845 154 936.51173 154 904.748845V96.251155C154 64.4882700000002 179.98827 38.501155 211.75 38.501155H789.25C821.012885 38.501155 847 64.4882700000002 847 96.251155V747.7187025000001C847 747.8057125 847 747.8856000000001 847 747.9724175zM774.40825 750.7511549999999H635.25V889.902475L774.40825 750.7511549999999zM211.75 96.2511549999999V904.748845H577.5V750.7511549999999C577.5 718.98827 603.487115 693.0011549999999 635.25 693.0011549999999H789.25V96.2511549999999H211.75z" />
    <glyph glyph-name="axp-icon-paymentnotdue-filled"
      unicode="&#xEA35;"
      horiz-adv-x="1001" d=" M875.875 529.375C859.9277225000001 529.375 847 516.4472775 847 500.5C847 309.4393225 691.5606775 154 500.5 154S154 309.4393225 154 500.5S309.4393225 847 500.5 847C610.70933 847 708.95902 795.19286 772.4614975000001 714.74557L727.5627975 714.719775C711.63554 714.6693399999999 698.6772100000001 701.7697225 698.7101275 685.8307225C698.7078174999999 669.8763225 711.639005 656.96169 727.591095 656.967465L843.0934050000001 657.03561C844.4986550000001 657.03792 845.8709875 657.1401375 847.2290750000001 657.3362950000001C861.2213225 659.3488825 871.9684050000001 671.3789775 871.9460750000001 685.9235075V685.9246625000001L871.9460750000001 685.9246625000001L871.9460750000001 685.9246625000001L871.8873625 801.4281275000001C871.8919825 817.37194 858.9596399999999 830.2971600000001 843.006395 830.2902300000001C827.11783 830.2361375 814.1373625 817.3625075000001 814.1548800000002 801.4011775L814.1783650000002 755.0949175000001C740.078185 846.32086 627.1911799999999 904.75 500.5 904.75C277.238115 904.75 96.25 723.761885 96.25 500.5S277.238115 96.25 500.5 96.25C723.7595749999999 96.25 904.75 277.238115 904.75 500.5C904.75 516.4472775 891.8222774999999 529.375 875.875 529.375z M500.5 731.5C372.92178 731.5 269.5 628.07822 269.5 500.5C269.5 372.922935 372.92178 269.5 500.5 269.5S731.5 372.922935 731.5 500.5C731.5 628.07822 628.07822 731.5 500.5 731.5zM648.033155 578.18607L486.51372 385.6955025C480.79878 378.890435 472.62138 375.375 464.3687125 375.375C464.2828575 375.375 464.20066 375.4231249999999 464.1149975 375.425435C464.0537825 375.4242800000001 463.99738 375.375 463.9363575 375.375C456.5484 375.375 449.1604425000001 378.1947399999999 443.5207700000001 383.8344125L354.6775925 472.67759C343.3982475 483.9475025 343.3982475 502.23866 354.6775925 513.5085725C365.9569375000001 524.7879175 384.2294225000001 524.7879175 395.508575 513.5085725L462.313775 446.7033725L603.78087 615.313545C614.0262974999999 627.5140025000001 632.2235149999999 629.1306175 644.4615100000001 618.8665175C656.68064 608.621475 658.2785825 590.4053925000001 648.033155 578.18607z" />
    <glyph glyph-name="axp-icon-paymentnotdue"
      unicode="&#xEA36;"
      horiz-adv-x="1001" d=" M875.875 529.375C859.9277225000001 529.375 847 516.4472775 847 500.5C847 309.4393225 691.5606775 154 500.5 154S154 309.4393225 154 500.5S309.4393225 847 500.5 847C610.70933 847 708.95902 795.19286 772.4614975000001 714.74557L727.5627975 714.719775C711.63554 714.6693399999999 698.6772100000001 701.7697225 698.7101275 685.8307225C698.7078174999999 669.8763225 711.639005 656.96169 727.591095 656.967465L843.0934050000001 657.03561C844.4986550000001 657.03792 845.8709875 657.1401375 847.2290750000001 657.3362950000001C861.2213225 659.3488825 871.9684050000001 671.3789775 871.9460750000001 685.9235075V685.9246625000001L871.9460750000001 685.9246625000001L871.9460750000001 685.9246625000001L871.8885175000001 801.4281275000001C871.8919825000002 817.37194 858.9596400000001 830.2971600000001 843.0075500000002 830.2902300000001C827.1178300000001 830.2361375 814.1371700000001 817.3625075000001 814.1548800000002 801.4011775L814.1783650000002 755.0949175000001C740.078185 846.32086 627.1911799999999 904.75 500.5 904.75C277.238115 904.75 96.25 723.761885 96.25 500.5S277.238115 96.25 500.5 96.25C723.7595749999999 96.25 904.75 277.238115 904.75 500.5C904.75 516.4472775 891.8222774999999 529.375 875.875 529.375z M603.7795225 615.31393L462.3124275 446.7037575000001L395.5083825 513.5089575000001C384.2290375 524.7883025000001 365.9565525 524.7883025000001 354.6774000000001 513.5089575000001C343.398055 502.239045 343.398055 483.9478875000001 354.6774000000001 472.6779750000001L443.5205775000001 383.8347975000001C449.1604425000001 378.1947399999999 456.5484 375.375 463.9363575 375.375C463.99738 375.375 464.0537825 375.4242800000001 464.1149975 375.425435C464.20066 375.4231249999999 464.2828575 375.375 464.3687125 375.375C472.62138 375.375 480.7989725 378.890435 486.51372 385.6955025L648.033155 578.18607C658.2774275 590.4053925000001 656.6806399999999 608.6212825 644.4601625 618.86671C632.2221675 629.1310025 614.026105 627.514195 603.7795225 615.31393z" />
    <glyph glyph-name="axp-icon-pdf-filled"
      unicode="&#xEA37;"
      horiz-adv-x="1001" d=" M471.098705 463.071455C477.2646725 465.158155 483.46837 467.13205 489.671875 468.95541C494.4091075 470.36528 499.1465325 471.68121 503.8649 472.9218725000001L485.9683675 496.56145C481.6448175 486.5701225 476.34356 474.5388725 471.098705 463.071455z M351.5710275 354.4073225C351.400665 353.4120975000001 351.5217475 353.01497 352.24189 352.3111899999999C353.05963 351.4782425 353.5283675 351.4782425 353.9008549999999 351.4782425C358.89315 351.4782425 371.8713075 360.5322875 392.5442675 391.0685625C366.13423 375.217535 352.7999475 361.70596 351.5710275 354.4073225z M486.4573175 647.3788475C485.518495 648.7136425 484.3860175 649.5383125 481.7164275000001 649.5383125C478.730945 649.5383125 476.8369375 648.5115175000001 475.2026125 646.011135C469.1423275 636.730325 469.604135 611.4048324999999 480.2195475 578.6444125C491.75742 618.8892324999999 491.2228475000001 640.67927 486.4573175 647.3788475z M846.4594599999999 750.75C845.806115 757.12406 843.4504925 763.37569 838.565035 768.25749L652.9453699999999 953.8677225C648.01198 958.801305 641.6897025000001 961.17945 635.25 961.797375V962.498845H211.75C179.98827 962.498845 154 936.51173 154 904.748845V96.251155C154 64.4882700000002 179.98827 38.501155 211.75 38.501155H789.25C821.012885 38.501155 847 64.4882700000002 847 96.251155V747.7187025000001C847 747.8057125 847 747.8856000000001 847 747.9724175V750.75H846.4594599999999zM638.4834225 405.7162725000001C613.293065 405.7162725000001 579.567835 416.4879950000001 549.3393675 434.0272475000001C534.1310974999999 431.2825825000001 518.678545 427.5792675 503.3199325 423.0110500000001C480.64863 416.2999225000001 457.5823175 407.5960350000001 436.3020200000001 397.7265600000001C394.5497325000001 327.1934050000001 370.4121575000001 318.0196250000002 353.9818975 318.0196250000002H353.90663C344.4319725 318.0196250000002 335.4274000000001 321.7982075000001 328.5846025 328.6410050000002C320.2755325 336.9500750000002 316.62862 348.3797625000002 318.5836500000001 359.9786575000002C322.5878425000001 383.6276675000002 350.7109375 408.6676825000001 402.1819725 434.4407375000001C412.314595 452.5064775000001 422.7290375 472.9782750000002 432.429305 493.9390225000001C441.0203875000001 512.5029525000001 448.9159675 531.4896125 455.3639475000001 549.1699675000001C445.7764850000001 573.2888700000001 426.13186 632.0163850000001 447.2052200000001 664.3034475000001C454.9315925000001 676.1654900000001 467.5266750000001 682.97999 481.7198925000001 682.97999C494.9354025000001 682.97999 506.290015 677.2180800000001 513.7343750000001 666.7659075000001C528.2471425000001 646.3127825000001 526.0476375000001 609.5140975000002 506.7601 551.1906400000001C512.7568600000001 538.6800650000001 519.6373875 526.8180225000001 527.2696275000001 515.8582275000001C535.0899400000001 504.6258525000001 546.2751525000001 493.7507575000001 559.7728675 484.1727275000001C575.35709 486.2875325000001 589.9826625000001 487.35918 603.36738 487.35918C637.0360149999999 487.35918 659.57584 480.8923350000001 672.28392 467.56402C679.5966099999999 459.9129150000001 683.3751924999999 450.0059025000001 682.886435 439.6476700000001C682.265815 424.04516 670.272295 405.7162725000001 638.4834225 405.7162725000001zM635.25 750.7511549999999V889.902475L774.409405 750.7511549999999H635.25z M603.37431 453.8870875C597.54079 453.8870875 591.4475875 453.6603225 585.0889275 453.19967C606.3351525 443.6276075 625.9316524999999 439.2016474999999 638.4811125 439.2016474999999C645.5295 439.2016474999999 648.6759125000001 440.6092074999999 649.460735 441.256585C649.4936525 442.1954075 649.3080825 443.1823550000001 648.0695374999999 444.4688325C643.7328974999999 449.01703 629.68675 453.8870875 603.37431 453.8870875z" />
    <glyph glyph-name="axp-icon-pdf"
      unicode="&#xEA38;"
      horiz-adv-x="1001" d=" M603.3671875 487.359565C589.98247 487.359565 575.3568975000001 486.28811 559.772675 484.1731125C546.2751525 493.7511425 535.0897475 504.6262375 527.269435 515.8586124999999C519.637195 526.8184075 512.7566675 538.6804500000001 506.7599075000001 551.1910250000001C526.047445 609.5144825000001 528.2469500000001 646.3131675000001 513.7341825000001 666.7662925000001C506.2898225000001 677.2184650000002 494.9354025000001 682.9803750000001 481.7197 682.9803750000001C467.5266750000001 682.9803750000001 454.9314000000001 676.165875 447.2050275000001 664.3038325C426.1314750000001 632.01677 445.7762925000001 573.2892549999999 455.363755 549.1703525C448.9157750000001 531.4899975000001 441.0201950000001 512.503145 432.4291125000001 493.9394075000001C422.728845 472.97866 412.3144025 452.5068625000001 402.18178 434.4411225C350.7105525 408.667875 322.5874575000001 383.62786 318.5834575 359.9790425C316.6284275000001 348.3801475 320.2753400000001 336.95046 328.5844100000001 328.64139C335.4272075 321.7985925000001 344.43178 318.02001 353.9064375 318.02001H353.9817050000001C370.411965 318.02001 394.5495400000001 327.1937899999999 436.3018275000001 397.7269449999999C457.582125 407.5964199999999 480.648245 416.3001149999999 503.31974 423.0114349999999C518.6783525 427.57946 534.1310975 431.2829675 549.3391750000001 434.0276324999999C579.5676425 416.4883799999999 613.2928725 405.7166574999999 638.48323 405.7166574999999C670.2721025 405.7166574999999 682.2656225000001 424.0455449999999 682.8860500000001 439.6486324999999C683.3748075000001 450.0068649999999 679.596225 459.9136849999999 672.283535 467.5649824999998C659.5756475 480.8929125 637.0358225 487.359565 603.3671875 487.359565zM353.9008550000001 351.4782425C353.5283675 351.4782425 353.05963 351.4782425 352.24189 352.3111899999999C351.5217475 353.01497 351.400665 353.4120975 351.5710275000001 354.4073225C352.7999475000001 361.70596 366.1342300000001 375.217535 392.5442675000001 391.0685625C371.8713075000001 360.5320950000001 358.89315 351.4782425 353.9008550000001 351.4782425zM475.2026125 646.011135C476.8369375 648.5113249999999 478.730945 649.5383125 481.7164275 649.5383125C484.385825 649.5383125 485.518495 648.71345 486.4573175 647.3788475C491.2228474999999 640.6794625 491.75742 618.8892324999999 480.2195475 578.6444125C469.604135 611.4048325 469.1423275 636.730325 475.2026125 646.011135zM489.671875 468.9556024999999C483.4681775 467.13205 477.2646725 465.158155 471.098705 463.0716475C476.34356 474.5388725 481.6448175 486.5701225 485.96856 496.561835L503.8650925 472.9222575C499.1465325 471.6814025 494.4091075 470.3654725 489.671875 468.9556024999999zM638.4811125 439.2016475000001C625.9316525 439.2016475000001 606.3351525 443.6276075000001 585.0889275 453.1996700000001C591.4475875 453.6603225 597.54079 453.8870875000001 603.37431 453.8870875000001C629.68675 453.8870875000001 643.7330900000001 449.0170300000001 648.0697299999999 444.4688325000001C649.3080825 443.1823550000001 649.4936525 442.1954075000001 649.4609275 441.2565850000001C648.6759125000001 440.6092075 645.5295 439.2016475000001 638.4811125 439.2016475000001z M847 747.9724175V750.75H846.4594599999999C845.806115 757.12406 843.4504925 763.37569 838.565035 768.25749L652.9453699999999 953.8677225C648.01198 958.801305 641.6897025000001 961.17945 635.25 961.797375V962.498845H211.75C179.98827 962.498845 154 936.51173 154 904.748845V96.251155C154 64.4882700000002 179.98827 38.501155 211.75 38.501155H789.25C821.012885 38.501155 847 64.4882700000002 847 96.251155V747.7187025000001C847 747.8057125 847 747.8856000000001 847 747.9724175zM774.40825 750.7511549999999H635.25V889.902475L774.40825 750.7511549999999zM211.75 96.2511549999999V904.748845H577.5V750.7511549999999C577.5 718.98827 603.487115 693.0011549999999 635.25 693.0011549999999H789.25V96.2511549999999H211.75z" />
    <glyph glyph-name="axp-icon-plus-filled"
      unicode="&#xEA39;"
      horiz-adv-x="1001" d=" M914.375 548.625H548.625V914.375C548.625 940.956555 527.081555 962.5 500.5 962.5S452.375 940.956555 452.375 914.375V548.625H86.625C60.043445 548.625 38.5 527.081555 38.5 500.5S60.043445 452.375 86.625 452.375H452.375V86.625C452.375 60.043445 473.918445 38.5 500.5 38.5S548.625 60.043445 548.625 86.625V452.375H914.375C940.956555 452.375 962.5 473.918445 962.5 500.5S940.956555 548.625 914.375 548.625z" />
    <glyph glyph-name="axp-icon-plus"
      unicode="&#xEA3A;"
      horiz-adv-x="1001" d=" M933.625 529.375H529.375V933.625C529.375 949.5757425 516.4413099999999 962.5 500.5 962.5S471.625 949.5757425 471.625 933.625V529.375H67.375C51.4242575 529.375 38.5 516.4507425 38.5 500.5S51.4242575 471.625 67.375 471.625H471.625V67.375C471.625 51.4336900000001 484.55869 38.5 500.5 38.5S529.375 51.4336900000001 529.375 67.375V471.625H933.625C949.56631 471.625 962.5 484.5492575 962.5 500.5S949.56631 529.375 933.625 529.375z" />
    <glyph glyph-name="axp-icon-pluscircle-filled"
      unicode="&#xEA3B;"
      horiz-adv-x="1001" d=" M500.5 962.5C245.344715 962.5 38.5 755.655285 38.5 500.5S245.344715 38.5 500.5 38.5S962.5 245.344715 962.5 500.5S755.655285 962.5 500.5 962.5zM702.625 471.625H529.375V298.375C529.375 282.4336900000001 516.4413099999999 269.5 500.5 269.5S471.625 282.4336900000001 471.625 298.375V471.625H298.375C282.43369 471.625 269.5 484.5492575 269.5 500.5S282.43369 529.375 298.375 529.375H471.625V702.625C471.625 718.5757424999999 484.55869 731.5 500.5 731.5S529.375 718.5757424999999 529.375 702.625V529.375H702.625C718.5663099999999 529.375 731.5 516.4507425 731.5 500.5S718.5663099999999 471.625 702.625 471.625z" />
    <glyph glyph-name="axp-icon-pluscircle"
      unicode="&#xEA3C;"
      horiz-adv-x="1001" d=" M500.5 962.5C245.344715 962.5 38.5 755.655285 38.5 500.5S245.344715 38.5 500.5 38.5S962.5 245.344715 962.5 500.5S755.655285 962.5 500.5 962.5zM500.5 96.25C277.5952025 96.25 96.25 277.5952025000001 96.25 500.5S277.5952025 904.75 500.5 904.75S904.75 723.4047975000001 904.75 500.5S723.4047975 96.25 500.5 96.25z M702.625 529.375H529.375V702.625C529.375 718.5757424999999 516.4413099999999 731.5 500.5 731.5S471.625 718.5757424999999 471.625 702.625V529.375H298.375C282.4242575 529.375 269.5 516.4507425 269.5 500.5S282.4242575 471.625 298.375 471.625H471.625V298.375C471.625 282.4336900000001 484.55869 269.5 500.5 269.5S529.375 282.4336900000001 529.375 298.375V471.625H702.625C718.5663099999999 471.625 731.5 484.5492575 731.5 500.5S718.5663099999999 529.375 702.625 529.375z" />
    <glyph glyph-name="axp-icon-print-filled"
      unicode="&#xEA3D;"
      horiz-adv-x="1001" d=" M847 789.25H673.75V847C673.75 878.762885 647.762885 904.75 616 904.75H385C353.237115 904.75 327.25 878.762885 327.25 847V789.25H154C122.237115 789.25 96.25 763.262885 96.25 731.5V327.25C96.25 295.48827 122.237115 269.5 154 269.5H271.2119025L251.2698650000001 164.805795C248.0504950000001 147.9010225000001 252.536515 130.4414650000001 263.5078600000001 117.18245C274.4793975 103.92459 290.790885 96.25 308 96.25H693C710.209115 96.25 726.5206025 103.92459 737.49214 117.18245C748.4636774999999 130.4414650000001 752.95066 147.9008300000001 749.7301349999999 164.805795L729.7880975 269.5H847C878.762885 269.5 904.75 295.48827 904.75 327.25V731.5C904.75 763.262885 878.762885 789.25 847 789.25zM385 847H616V789.25H385V847zM694.730575 453.555795C689.5421224999999 480.79416 665.7275625 500.5 638.0004399999999 500.5H362.99956C335.2724375 500.5 311.4578775 480.79416 306.269425 453.555795L304.21083 442.75H269.5V558.25H731.5V442.75H696.78917L694.730575 453.555795zM308 154L362.9995600000001 442.75H638.0006325L693 154H308z" />
    <glyph glyph-name="axp-icon-print"
      unicode="&#xEA3E;"
      horiz-adv-x="1001" d=" M847 789.25H673.75V847C673.75 878.762885 647.762885 904.75 616 904.75H385C353.237115 904.75 327.25 878.762885 327.25 847V789.25H154C122.237115 789.25 96.25 763.262885 96.25 731.5V327.25C96.25 295.48827 122.237115 269.5 154 269.5H271.2119025L251.2698650000001 164.805795C248.0504950000001 147.9010225000001 252.5376700000001 130.4414650000001 263.5078600000001 117.18245C274.4793975 103.92459 290.790885 96.25 308 96.25H693C710.209115 96.25 726.5206025 103.92459 737.49214 117.18245S752.95066 147.9008300000001 749.7301349999999 164.805795L729.7880975 269.5H847C878.762885 269.5 904.75 295.48827 904.75 327.25V731.5C904.75 763.262885 878.762885 789.25 847 789.25zM385 847H616V789.25H385V847zM694.730575 453.555795C689.5421224999999 480.79416 665.7275625 500.5 638.0004399999999 500.5H362.99956C335.2724375 500.5 311.4578775 480.79416 306.269425 453.555795L304.21083 442.75H269.5V558.25H731.5V442.75H696.78917L694.730575 453.555795zM308 154L362.9995600000001 442.75H638.0006325L693 154H308zM847 327.25H718.788455L707.7888125000001 385H731.5C763.262885 385 789.25 410.987115 789.25 442.75V558.25C789.25 590.0128850000001 763.262885 616 731.5 616H269.5C237.73827 616 211.75 590.0128850000001 211.75 558.25V441.84756C211.75 410.5817100000001 237.33171 385 268.59756 385H293.2111875L282.211545 327.25H154V731.5H385H616H847V327.25z" />
    <glyph glyph-name="axp-icon-receipt-filled"
      unicode="&#xEA3F;"
      horiz-adv-x="1001" d=" M789.25 962.5H211.75C179.98827 962.5 154 936.512885 154 904.75V789.25C154 757.487115 179.98827 731.5 211.75 731.5H231V67.375C231 55.7197025 237.99314 45.2111275 248.74619 40.7370425C259.442645 36.2629575000001 271.8687125 38.6503425 280.1777825000001 46.8466075L340.0895575 106.0817450000001L399.98266 46.8466075C411.2242750000001 35.7177975000001 429.3464175000001 35.7177975000001 440.588225 46.8466075L500.5 106.081745L560.411775 46.8466074999999C571.6533900000001 35.7177975 589.7755325 35.7177975 601.01734 46.8466074999999L660.9104425 106.081745L720.8222175 46.8466074999999C726.3304125000001 41.3950075 733.68064 38.5 741.125 38.5C744.8847175 38.5 748.6632999999999 39.2332325 752.2538099999999 40.7370425C763.00686 45.2111275 770 55.7197025 770 67.375V731.5H789.25C821.012885 731.5 847 757.487115 847 789.25V904.75C847 936.512885 821.012885 962.5 789.25 962.5zM587.125 327.25H413.875C397.93369 327.25 385 340.1836900000001 385 356.125S397.93369 385 413.875 385H587.125C603.0663099999999 385 616 372.06631 616 356.125S603.0663099999999 327.25 587.125 327.25zM587.125 442.75H413.875C397.93369 442.75 385 455.6836900000001 385 471.625C385 487.5757425 397.93369 500.5 413.875 500.5H587.125C603.0663099999999 500.5 616 487.5757425 616 471.625C616 455.6836900000001 603.0663099999999 442.75 587.125 442.75zM587.125 558.25H413.875C397.93369 558.25 385 571.1742575 385 587.125S397.93369 616 413.875 616H587.125C603.0663099999999 616 616 603.0757425 616 587.125S603.0663099999999 558.25 587.125 558.25zM789.25 789.25H741.125H259.875H211.75V904.75H789.25V789.25z" />
    <glyph glyph-name="axp-icon-receipt"
      unicode="&#xEA40;"
      horiz-adv-x="1001" d=" M789.25 962.5H211.75C179.98827 962.5 154 936.512885 154 904.75V789.25C154 757.487115 179.98827 731.5 211.75 731.5H231V67.375C231 55.7197025 238.0025725 45.2111275 248.74619 40.7370425C259.5367775 36.2252275 271.90625 38.6503425 280.1777825000001 46.8466075L340.0895575 106.0817450000001L399.98266 46.8466075C411.2242750000001 35.7177975000001 429.3464175000001 35.7177975000001 440.588225 46.8466075L500.5 106.081745L560.411775 46.8466074999999C571.6533900000001 35.7177975 589.7755325 35.7177975 601.01734 46.8466074999999L660.9104425 106.081745L720.8222175 46.8466074999999C726.3304125000001 41.3950075 733.68064 38.5 741.125 38.5C744.8847175 38.5 748.6632999999999 39.2332325 752.2538099999999 40.7370425C763.00686 45.2111275 770 55.7197025 770 67.375V731.5H789.25C821.012885 731.5 847 757.487115 847 789.25V904.75C847 936.512885 821.012885 962.5 789.25 962.5zM712.25 136.5358225L681.2132250000001 167.21551C669.97161 178.3443200000001 651.8494675000001 178.3443200000001 640.60766 167.21551L580.7145575000001 107.9803724999999L520.8027825 167.21551C515.181975 172.7801075 507.831555 175.56231 500.5 175.56231S485.818025 172.7801075 480.1972175 167.2157024999999L420.2854425 107.9805649999998L360.39234 167.2157024999999C349.150725 178.3445125 331.0285825 178.3445125 319.786775 167.2157024999999L288.75 136.5358225V731.5H712.25V136.5358225zM211.75 789.25V904.75H789.25V789.25H211.75z M413.875 558.25H587.125C603.0663099999999 558.25 616 571.1742575 616 587.125S603.0663099999999 616 587.125 616H413.875C397.93369 616 385 603.0757425 385 587.125S397.93369 558.25 413.875 558.25z M413.875 442.75H587.125C603.0663099999999 442.75 616 455.6836900000001 616 471.625C616 487.5757425 603.0663099999999 500.5 587.125 500.5H413.875C397.93369 500.5 385 487.5757425 385 471.625C385 455.6836900000001 397.93369 442.75 413.875 442.75z M413.875 327.25H587.125C603.0663099999999 327.25 616 340.1836900000001 616 356.125S603.0663099999999 385 587.125 385H413.875C397.93369 385 385 372.06631 385 356.125S397.93369 327.25 413.875 327.25z" />
    <glyph glyph-name="axp-icon-rewards-filled"
      unicode="&#xEA41;"
      horiz-adv-x="1001" d=" M872.397295 760.5442075L540.203125 951.8880525C516.1030875 965.7803925 484.8969125 965.7803925 460.796875 951.8880525L128.602705 760.5442075C104.088985 746.416825 88.8620425 720.0891775 88.8620425 691.843845V309.1467225C88.8620425 280.89215 104.0891775 254.5737425 128.602705 240.4557925000001L460.8155475 49.102515C472.8656625 42.1657775 486.588795 38.5 500.5 38.5S528.1343375 42.1657775 540.203125 49.102515L872.37843 240.4557925000001C896.9108225 254.5737425000001 912.1379575 280.89215 912.1379575 309.1467225V691.843845C912.1379575 720.0891775 896.9108225 746.416825 872.397295 760.5442075zM686.80458 553.7535849999999L614.1048375 475.7454625L633.0845674999999 365.042755C634.57317 356.3646625 631.008455 347.6126500000001 623.8953875000001 342.4395974999999C619.8654 339.5211049999999 615.09756 338.0325024999999 610.3156675 338.0325024999999C606.631025 338.0325024999999 602.946575 338.9054899999999 599.56281 340.6795699999999L500.77027 392.6243474999999L401.978885 340.6795699999999C394.2032325 336.5885599999999 384.77439 337.2805974999999 377.6449600000001 342.4395974999999C370.5318925 347.6128425 366.9671775 356.3648549999999 368.4571275 365.042755L387.4357025000001 475.6855949999999L314.2554800000001 553.6937174999999C308.3901975000001 559.9418825 306.4657750000001 568.9208524999999 309.2631850000001 577.0266425C312.0453875000001 585.1255024999999 319.0985875 591.0129225 327.5649300000001 592.3288525L431.7715325000001 608.4653575L480.978575 690.2707350000001C485.1448525 697.2192150000001 492.66448 701.4678825000001 500.77027 701.4678825000001S516.3956875 697.2194075 520.561965 690.2707350000001L569.7701625000001 608.4582350000001L673.4493150000001 592.3217299999999C681.9017975 591.0129225 688.9395975 585.1324324999999 691.7370075 577.0559025C694.5192099999999 568.9724424999999 692.6240475 560.0100275 686.80458 553.7535849999999z" />
    <glyph glyph-name="axp-icon-rewards"
      unicode="&#xEA42;"
      horiz-adv-x="1001" d=" M500.5 38.5C486.588795 38.5 472.8656625 42.1657775 460.8157399999999 49.102515L128.602705 240.4557925000001C104.088985 254.5737425000001 88.8620425 280.89215 88.8620425 309.1467225V691.843845C88.8620425 720.0891775 104.0891775 746.416825 128.5932725 760.5442075L460.796875 951.8880525C484.8969125 965.7803925 516.1030875 965.7803925 540.203125 951.8880525L872.397295 760.5442075C896.9110149999999 746.416825 912.1379575 720.0891775 912.1379575 691.843845V309.1467225C912.1379575 280.89215 896.9108224999999 254.5737425 872.37843 240.4557925000001L540.203125 49.102515C528.1343375 42.1657775 514.411205 38.5 500.5 38.5zM500.5 904.75C496.68388 904.75 492.9241625 903.7441875 489.6343375 901.84556L157.4213025 710.501715C150.757145 706.6572974999999 146.6120425 699.5043825 146.6120425 691.843845V309.1467225C146.6120425 301.4767525 150.757145 294.33327 157.4213025 290.498285L489.634145 99.1450075C496.213795 95.3475599999999 504.7671475 95.3475599999999 511.384335 99.1450075L843.5596400000001 290.498285C850.2520949999999 294.33327 854.3877650000001 301.4956175 854.3877650000001 309.1467225V691.843845C854.3877650000001 699.5043825 850.23323 706.6572974999999 843.5596400000001 710.501715L511.3656625 901.84556C508.0758375 903.7441875 504.31612 904.75 500.5 904.75z M637.769055 292.6038500000001C633.1632999999999 292.6038500000001 628.5575449999999 293.6941700000001 624.327935 295.9125400000001L500.838415 360.8437525000001L377.348895 295.9125400000001C367.629955 290.7993550000001 355.8429875 291.6640650000001 346.932355 298.1120450000001C338.0405875 304.5788900000001 333.585175 315.5198200000001 335.446265 326.3666175000002L359.1703500000001 464.6695900000002L267.6953125 562.1791175000001C260.3637575 569.9899975000001 257.9575075 581.2129400000001 261.4540775 591.3455625000001C264.941215 601.4687525000002 273.748475 608.8284125000001 284.3323175 610.4733250000002L414.5893675 630.6444375000001L476.0990849999999 732.9006300000001C481.3064025 741.5856525000002 490.7057925 746.8963425000002 500.838415 746.8963425000002S520.3704275 741.5856525000002 525.577745 732.9006300000001L587.0874625 630.6350050000001L716.6865475 610.4638925000002C727.251525 608.8284125000001 736.0493524999999 601.4779925000001 739.5459225 591.3831000000001C743.0236275 581.2787750000002 740.6551075 570.0746975000002 733.379955 562.2543850000002L642.5064799999999 464.7448575000002L666.2305649999998 326.3666175000002C668.0916549999998 315.5196275000002 663.6362424999999 304.5786975000002 654.744475 298.1120450000001C649.706365 294.4649400000001 643.7471425 292.6038500000001 637.769055 292.6038500000001zM500.838415 422.3344125C505.44417 422.3344125 510.0685975 421.2252275 514.2795349999999 419.0257225000001L599.4193975 374.2656225L583.1583449999999 469.0680225C581.63567 477.95979 584.342605 487.0490625 590.4898999999999 493.638145L653.9923775 561.7744825L564.8671875 575.6479575000001C556.407775 576.954455 548.9634149999999 581.9550274999999 544.564405 589.2958225L500.838415 661.990945L457.112425 589.2958225C452.6947425 581.954835 445.2503825 576.954455 436.79097 575.6385250000001L347.2520975 561.7744825L411.1116625 493.7134125C417.31536 487.11509 420.04116 477.99752 418.518485 469.068215L402.2574325 374.265815L487.397295 419.025915C491.6082325 421.22542 496.23266 422.3344125 500.838415 422.3344125z" />
    <glyph glyph-name="axp-icon-right-filled"
      unicode="&#xEA43;"
      horiz-adv-x="1001" d=" M712.588415 534.5259149999999L356.4634150000001 890.6509149999999C337.6646350000001 909.449695 307.2105575000001 909.449695 288.4115850000001 890.6509149999999C269.6128050000001 871.8615675 269.6128050000001 841.388625 288.4115850000001 822.5990850000001L610.51067 500.5L288.411585 178.4009150000001C269.612805 159.6021350000001 269.612805 129.1480575000001 288.411585 110.3490850000001C297.8109750000001 100.949695 310.1242375 96.25 322.4375 96.25S347.064025 100.949695 356.463415 110.349085L712.5884149999999 466.4740849999999C731.387195 485.263625 731.387195 515.736375 712.588415 534.5259149999999z" />
    <glyph glyph-name="axp-icon-right"
      unicode="&#xEA44;"
      horiz-adv-x="1001" d=" M708.6030875 520.9155874999999L333.2280875 896.2905875C321.9487425 907.5699325 303.6762575 907.5699325 292.397105 896.2905875C281.11776 885.020675 281.11776 866.7295174999999 292.397105 855.459605L647.3565175 500.5L292.3969125000001 145.5405875C281.1175675 134.2612425 281.1175675 115.9887575 292.3969125000001 104.7096049999999C298.036585 99.0697399999999 305.4245425000001 96.25 312.8125 96.25S327.588415 99.0697399999999 333.2280875 104.7094125L708.6030875 480.0844125C719.8822399999999 491.354325 719.8822399999999 509.645675 708.6030875 520.9155874999999z" />
    <glyph glyph-name="axp-icon-search-filled"
      unicode="&#xEA45;"
      horiz-adv-x="1001" d=" M887.2107475 181.8410825L665.5854975000001 403.4663324999999C755.987925 526.7056024999999 745.8412500000001 700.6358974999998 634.426485 812.0506624999999C572.9190775 873.5592249999999 492.30258 904.313025 411.68743 904.313025S250.4569375 873.5592249999999 188.94953 812.0506624999999C65.934715 689.0358474999998 65.934715 489.5896774999999 188.94953 366.5737075C250.4569375 305.0663 331.0722800000001 274.3125 411.68743 274.3125C477.0991225 274.3125 542.33102 294.919625 597.53386 335.4145024999999L819.1591099999999 113.7892525C828.5585 104.3898624999999 840.8717624999999 99.6901675 853.185025 99.6901675S877.81155 104.3898625000001 887.21094 113.7892525C906.0095275 132.5882250000001 906.0095275 163.0423025 887.2107475 181.8410825zM411.6872375 370.5625C353.2569425 370.5625 298.3243725 393.3173475 257.0080975 434.6336225C171.7178925 519.9238275 171.7178925 658.701505 257.0080975 743.9919024999999C298.3243725 785.3081775 353.2569425 808.0630249999999 411.6872375 808.0630249999999S525.0501025 785.3081775 566.3675324999999 743.9919024999999C651.6577375 658.7016975 651.6577375 519.9240199999999 566.3675324999999 434.6336225C525.0501025 393.3173475 470.1175325 370.5625 411.6872375 370.5625z" />
    <glyph glyph-name="axp-icon-search"
      unicode="&#xEA46;"
      horiz-adv-x="1001" d=" M887.0790775 154.751905L653.8102725000001 388.02071C756.9194325000001 511.7768425 750.5490300000001 695.927925 634.4262925 812.0506624999999C572.918885 873.559225 492.3023875000001 904.313025 411.6872375000001 904.313025S250.4567450000001 873.559225 188.9493375000001 812.0506624999999C65.9333675000001 689.0358474999999 65.9333675000001 489.5896775 188.9493375000001 366.5737075C250.4567450000001 305.0663 331.0720875000001 274.3125 411.6872375000001 274.3125C483.268555 274.3125 554.7732575000001 298.6957050000001 612.9792900000001 347.1897274999999L846.2480950000001 113.9209225C851.8877675000001 108.28125 859.2757250000002 105.46151 866.6636825000002 105.46151S881.4395975000002 108.2812499999999 887.0792700000002 113.9209225C898.3584225 125.2002675 898.3584225 143.4725599999999 887.0790775 154.751905zM411.6872375 332.0625C342.9728225 332.0625 278.3717475 358.8215399999999 229.7839775 407.40931S154.4371675 520.598155 154.4371675 589.31257S181.1962075 722.62806 229.7839775 771.21583S342.9739775 846.56264 411.6872375 846.56264C480.4016525000001 846.56264 545.0027275 819.8036 593.5904975 771.21583C642.1784600000001 722.6267124999999 668.9373075 658.02583 668.9373075 589.31257C668.9373075 520.598155 642.1782675 455.99708 593.5904975 407.40931S480.4016525 332.0625 411.6872375 332.0625z" />
    <glyph glyph-name="axp-icon-setting-filled"
      unicode="&#xEA47;"
      horiz-adv-x="1001" d=" M900.3323175 626.959795H861.6819750000001C856.963415 640.4009149999999 851.4742775 653.58832 845.2705800000001 666.43731L872.6229050000002 693.7802025000001C883.0186750000001 704.1571074999999 888.7334225000002 717.9555075000001 888.7522875000002 732.6467225C888.7522875000002 747.3286975000001 883.0373475000001 761.1269050000001 872.6417700000002 771.522675L771.5226749999999 872.6227125C750.7875374999999 893.3672825 714.675115 893.4142525 693.7894425 872.632145L666.4182525 845.2703875C653.55983 851.4740850000001 640.3818575 856.95379 626.9218725 861.6817825V900.3134525C626.9218725 930.62662 602.276675 955.28125 571.97294 955.28125H428.9891375C398.6854025 955.28125 374.0402049999999 930.62662 374.0402049999999 900.3134525V861.681975C360.58022 856.9634149999999 347.3833825 851.4835175 334.5251525 845.27058L307.1728275 872.622905C287.0581174999999 892.75648 249.460365 892.6812125 229.4584599999999 872.622905L128.3395575 771.5323C117.9626525 761.1459625 112.2665775 747.3475625 112.2665775 732.66578C112.2665775 717.974565 117.9815175 704.176165 128.3584225 693.8086925L155.7296125 666.4563674999999C149.50705 653.5788875000001 144.036585 640.3820499999999 139.318025 626.959795H100.6676825C70.3639475 626.959795 45.71875 602.305165 45.71875 571.9919975V429.008195C45.71875 398.7044600000001 70.3639475 374.0403975000001 100.6676825 374.0403975000001H139.318025C144.036585 360.61795 149.5257225 347.4399775000001 155.72942 334.5817475L128.3395575 307.1918850000001C106.9277825 285.7612450000001 106.946455 250.8894850000002 128.3584225 229.4775175000001L229.477325 128.3774800000001C250.231135 107.6236700000002 286.43769 107.6236700000002 307.1916925 128.3774800000001L334.581555 155.7673425000001C347.4588425 149.5449725000001 360.6554875 144.0745075000001 374.05907 139.3748125000001V100.68674C374.05907 70.383005 398.7042675 45.7189425 429.0080025 45.7189425H571.991805C602.29554 45.7189425 626.9407375000001 70.383005 626.9407375000001 100.68674V139.3748125000001C640.3818575 144.0745075000001 653.578695 149.5638375000001 666.4182525000001 155.7673425000001L693.808115 128.3961525C713.8852875 108.300115 751.5017125 108.337845 771.5224825 128.3961525L872.641385 229.4961900000001C894.072025 250.9268300000001 894.072025 285.7799175000001 872.641385 307.2105575000001L845.2515225000001 334.60042C851.4552200000002 347.4588424999999 856.9443575 360.6368149999999 861.6629175 374.0590699999999H900.332125C930.6358599999998 374.0590699999999 955.2810575 398.7231324999999 955.2810575 429.0268674999999V572.0106699999999C955.28125 602.314405 930.6360525 626.959795 900.3323175 626.959795zM500.498845 385C436.709735 385 384.998845 436.71089 384.998845 500.5S436.709735 616 500.498845 616S615.998845 564.2891099999999 615.998845 500.5S564.287955 385 500.498845 385z" />
    </font>
</defs>
</svg>
